%TF.GenerationSoftware,KiCad,Pcbnew,(5.1.9)-1*%
%TF.CreationDate,2021-03-30T21:26:33+02:00*%
%TF.ProjectId,plant,706c616e-742e-46b6-9963-61645f706362,rev?*%
%TF.SameCoordinates,Original*%
%TF.FileFunction,Soldermask,Top*%
%TF.FilePolarity,Negative*%
%FSLAX46Y46*%
G04 Gerber Fmt 4.6, Leading zero omitted, Abs format (unit mm)*
G04 Created by KiCad (PCBNEW (5.1.9)-1) date 2021-03-30 21:26:33*
%MOMM*%
%LPD*%
G01*
G04 APERTURE LIST*
%ADD10R,0.650000X1.050000*%
%ADD11R,1.750000X0.700000*%
%ADD12R,1.330000X1.330000*%
%ADD13R,2.000000X0.900000*%
%ADD14C,1.700000*%
%ADD15O,1.700000X1.700000*%
G04 APERTURE END LIST*
D10*
%TO.C,SW1*%
X167073000Y-99230000D03*
X167073000Y-95080000D03*
X169223000Y-99230000D03*
X169223000Y-95080000D03*
%TD*%
D11*
%TO.C,IC2*%
X162087000Y-95187000D03*
X162087000Y-96187000D03*
X162087000Y-97187000D03*
X162087000Y-98187000D03*
X162087000Y-99187000D03*
X156937000Y-99187000D03*
X156937000Y-98187000D03*
X156937000Y-97187000D03*
X156937000Y-96187000D03*
X156937000Y-95187000D03*
%TD*%
D12*
%TO.C,IC1*%
X164919000Y-77915000D03*
X163084000Y-77915000D03*
X161249000Y-77915000D03*
X164919000Y-74245000D03*
X163084000Y-74245000D03*
X161249000Y-74245000D03*
X164919000Y-76080000D03*
X161249000Y-76080000D03*
X163084000Y-76080000D03*
D13*
X172584000Y-68580000D03*
X172584000Y-69850000D03*
X172584000Y-71120000D03*
X172584000Y-72390000D03*
X172584000Y-73660000D03*
X172584000Y-74930000D03*
X172584000Y-76200000D03*
X172584000Y-77470000D03*
X172584000Y-78740000D03*
X172584000Y-80010000D03*
X172584000Y-81280000D03*
X172584000Y-82550000D03*
X172584000Y-83820000D03*
X172584000Y-85090000D03*
X172584000Y-86360000D03*
X172584000Y-87630000D03*
X172584000Y-88900000D03*
X172584000Y-90170000D03*
X172584000Y-91440000D03*
X155584000Y-91440000D03*
X155584000Y-90170000D03*
X155584000Y-88900000D03*
X155584000Y-87630000D03*
X155584000Y-86360000D03*
X155584000Y-85090000D03*
X155584000Y-83820000D03*
X155584000Y-82550000D03*
X155584000Y-81280000D03*
X155584000Y-80010000D03*
X155584000Y-78740000D03*
X155584000Y-77470000D03*
X155584000Y-76200000D03*
X155584000Y-74930000D03*
X155584000Y-73660000D03*
X155584000Y-72390000D03*
X155584000Y-71120000D03*
X155584000Y-69850000D03*
X155584000Y-68580000D03*
%TD*%
D14*
%TO.C,J1*%
X152908000Y-91186000D03*
D15*
X152908000Y-88646000D03*
X152908000Y-86106000D03*
X152908000Y-83566000D03*
%TD*%
%TO.C,J2*%
X152908000Y-64008000D03*
D14*
X152908000Y-66548000D03*
%TD*%
%TO.C,R1*%
G36*
G01*
X152633000Y-75483000D02*
X153183000Y-75483000D01*
G75*
G02*
X153383000Y-75683000I0J-200000D01*
G01*
X153383000Y-76083000D01*
G75*
G02*
X153183000Y-76283000I-200000J0D01*
G01*
X152633000Y-76283000D01*
G75*
G02*
X152433000Y-76083000I0J200000D01*
G01*
X152433000Y-75683000D01*
G75*
G02*
X152633000Y-75483000I200000J0D01*
G01*
G37*
G36*
G01*
X152633000Y-77133000D02*
X153183000Y-77133000D01*
G75*
G02*
X153383000Y-77333000I0J-200000D01*
G01*
X153383000Y-77733000D01*
G75*
G02*
X153183000Y-77933000I-200000J0D01*
G01*
X152633000Y-77933000D01*
G75*
G02*
X152433000Y-77733000I0J200000D01*
G01*
X152433000Y-77333000D01*
G75*
G02*
X152633000Y-77133000I200000J0D01*
G01*
G37*
%TD*%
%TO.C,C3*%
G36*
G01*
X153158000Y-74631000D02*
X152658000Y-74631000D01*
G75*
G02*
X152433000Y-74406000I0J225000D01*
G01*
X152433000Y-73956000D01*
G75*
G02*
X152658000Y-73731000I225000J0D01*
G01*
X153158000Y-73731000D01*
G75*
G02*
X153383000Y-73956000I0J-225000D01*
G01*
X153383000Y-74406000D01*
G75*
G02*
X153158000Y-74631000I-225000J0D01*
G01*
G37*
G36*
G01*
X153158000Y-73081000D02*
X152658000Y-73081000D01*
G75*
G02*
X152433000Y-72856000I0J225000D01*
G01*
X152433000Y-72406000D01*
G75*
G02*
X152658000Y-72181000I225000J0D01*
G01*
X153158000Y-72181000D01*
G75*
G02*
X153383000Y-72406000I0J-225000D01*
G01*
X153383000Y-72856000D01*
G75*
G02*
X153158000Y-73081000I-225000J0D01*
G01*
G37*
%TD*%
%TO.C,C2*%
G36*
G01*
X152658000Y-68879000D02*
X153158000Y-68879000D01*
G75*
G02*
X153383000Y-69104000I0J-225000D01*
G01*
X153383000Y-69554000D01*
G75*
G02*
X153158000Y-69779000I-225000J0D01*
G01*
X152658000Y-69779000D01*
G75*
G02*
X152433000Y-69554000I0J225000D01*
G01*
X152433000Y-69104000D01*
G75*
G02*
X152658000Y-68879000I225000J0D01*
G01*
G37*
G36*
G01*
X152658000Y-70429000D02*
X153158000Y-70429000D01*
G75*
G02*
X153383000Y-70654000I0J-225000D01*
G01*
X153383000Y-71104000D01*
G75*
G02*
X153158000Y-71329000I-225000J0D01*
G01*
X152658000Y-71329000D01*
G75*
G02*
X152433000Y-71104000I0J225000D01*
G01*
X152433000Y-70654000D01*
G75*
G02*
X152658000Y-70429000I225000J0D01*
G01*
G37*
%TD*%
%TO.C,C1*%
G36*
G01*
X153158000Y-81235000D02*
X152658000Y-81235000D01*
G75*
G02*
X152433000Y-81010000I0J225000D01*
G01*
X152433000Y-80560000D01*
G75*
G02*
X152658000Y-80335000I225000J0D01*
G01*
X153158000Y-80335000D01*
G75*
G02*
X153383000Y-80560000I0J-225000D01*
G01*
X153383000Y-81010000D01*
G75*
G02*
X153158000Y-81235000I-225000J0D01*
G01*
G37*
G36*
G01*
X153158000Y-79685000D02*
X152658000Y-79685000D01*
G75*
G02*
X152433000Y-79460000I0J225000D01*
G01*
X152433000Y-79010000D01*
G75*
G02*
X152658000Y-78785000I225000J0D01*
G01*
X153158000Y-78785000D01*
G75*
G02*
X153383000Y-79010000I0J-225000D01*
G01*
X153383000Y-79460000D01*
G75*
G02*
X153158000Y-79685000I-225000J0D01*
G01*
G37*
%TD*%
M02*
