%TF.GenerationSoftware,KiCad,Pcbnew,(5.1.9)-1*%
%TF.CreationDate,2021-03-30T21:26:33+02:00*%
%TF.ProjectId,plant,706c616e-742e-46b6-9963-61645f706362,rev?*%
%TF.SameCoordinates,Original*%
%TF.FileFunction,Copper,L1,Top*%
%TF.FilePolarity,Positive*%
%FSLAX46Y46*%
G04 Gerber Fmt 4.6, Leading zero omitted, Abs format (unit mm)*
G04 Created by KiCad (PCBNEW (5.1.9)-1) date 2021-03-30 21:26:33*
%MOMM*%
%LPD*%
G01*
G04 APERTURE LIST*
%TA.AperFunction,SMDPad,CuDef*%
%ADD10R,0.650000X1.050000*%
%TD*%
%TA.AperFunction,SMDPad,CuDef*%
%ADD11R,1.750000X0.700000*%
%TD*%
%TA.AperFunction,SMDPad,CuDef*%
%ADD12R,1.330000X1.330000*%
%TD*%
%TA.AperFunction,SMDPad,CuDef*%
%ADD13R,2.000000X0.900000*%
%TD*%
%TA.AperFunction,ComponentPad*%
%ADD14C,1.700000*%
%TD*%
%TA.AperFunction,ComponentPad*%
%ADD15O,1.700000X1.700000*%
%TD*%
%TA.AperFunction,ViaPad*%
%ADD16C,0.600000*%
%TD*%
%TA.AperFunction,ViaPad*%
%ADD17C,0.800000*%
%TD*%
%TA.AperFunction,Conductor*%
%ADD18C,0.250000*%
%TD*%
%TA.AperFunction,Conductor*%
%ADD19C,7.000000*%
%TD*%
%TA.AperFunction,Conductor*%
%ADD20C,0.900000*%
%TD*%
%TA.AperFunction,Conductor*%
%ADD21C,0.254000*%
%TD*%
%TA.AperFunction,Conductor*%
%ADD22C,0.100000*%
%TD*%
G04 APERTURE END LIST*
D10*
%TO.P,SW1,2*%
%TO.N,Net-(IC1-Pad11)*%
X167073000Y-99230000D03*
X167073000Y-95080000D03*
%TO.P,SW1,1*%
%TO.N,GND*%
X169223000Y-99230000D03*
X169223000Y-95080000D03*
%TD*%
D11*
%TO.P,IC2,10*%
%TO.N,Net-(IC2-Pad10)*%
X162087000Y-95187000D03*
%TO.P,IC2,9*%
%TO.N,Net-(IC2-Pad9)*%
X162087000Y-96187000D03*
%TO.P,IC2,8*%
%TO.N,Net-(IC2-Pad8)*%
X162087000Y-97187000D03*
%TO.P,IC2,7*%
%TO.N,Net-(IC2-Pad7)*%
X162087000Y-98187000D03*
%TO.P,IC2,6*%
%TO.N,GND*%
X162087000Y-99187000D03*
%TO.P,IC2,5*%
X156937000Y-99187000D03*
%TO.P,IC2,4*%
%TO.N,Net-(IC1-Pad12)*%
X156937000Y-98187000D03*
%TO.P,IC2,3*%
%TO.N,Net-(IC1-Pad16)*%
X156937000Y-97187000D03*
%TO.P,IC2,2*%
%TO.N,Net-(IC2-Pad2)*%
X156937000Y-96187000D03*
%TO.P,IC2,1*%
%TO.N,+3V3*%
X156937000Y-95187000D03*
%TD*%
D12*
%TO.P,IC1,47*%
%TO.N,GND*%
X164919000Y-77915000D03*
%TO.P,IC1,46*%
X163084000Y-77915000D03*
%TO.P,IC1,45*%
X161249000Y-77915000D03*
%TO.P,IC1,44*%
X164919000Y-74245000D03*
%TO.P,IC1,43*%
X163084000Y-74245000D03*
%TO.P,IC1,42*%
X161249000Y-74245000D03*
%TO.P,IC1,41*%
X164919000Y-76080000D03*
%TO.P,IC1,40*%
X161249000Y-76080000D03*
%TO.P,IC1,39*%
X163084000Y-76080000D03*
D13*
%TO.P,IC1,38*%
X172584000Y-68580000D03*
%TO.P,IC1,37*%
%TO.N,Net-(IC1-Pad37)*%
X172584000Y-69850000D03*
%TO.P,IC1,36*%
%TO.N,Net-(IC1-Pad36)*%
X172584000Y-71120000D03*
%TO.P,IC1,35*%
%TO.N,Net-(IC1-Pad35)*%
X172584000Y-72390000D03*
%TO.P,IC1,34*%
%TO.N,Net-(IC1-Pad34)*%
X172584000Y-73660000D03*
%TO.P,IC1,33*%
%TO.N,Net-(IC1-Pad33)*%
X172584000Y-74930000D03*
%TO.P,IC1,32*%
%TO.N,Net-(IC1-Pad32)*%
X172584000Y-76200000D03*
%TO.P,IC1,31*%
%TO.N,Net-(IC1-Pad31)*%
X172584000Y-77470000D03*
%TO.P,IC1,30*%
%TO.N,Net-(IC1-Pad30)*%
X172584000Y-78740000D03*
%TO.P,IC1,29*%
%TO.N,Net-(IC1-Pad29)*%
X172584000Y-80010000D03*
%TO.P,IC1,28*%
%TO.N,Net-(IC1-Pad28)*%
X172584000Y-81280000D03*
%TO.P,IC1,27*%
%TO.N,Net-(IC1-Pad27)*%
X172584000Y-82550000D03*
%TO.P,IC1,26*%
%TO.N,Net-(IC1-Pad26)*%
X172584000Y-83820000D03*
%TO.P,IC1,25*%
%TO.N,Net-(IC1-Pad25)*%
X172584000Y-85090000D03*
%TO.P,IC1,24*%
%TO.N,/TOUCH*%
X172584000Y-86360000D03*
%TO.P,IC1,23*%
%TO.N,Net-(IC1-Pad23)*%
X172584000Y-87630000D03*
%TO.P,IC1,22*%
%TO.N,Net-(IC1-Pad22)*%
X172584000Y-88900000D03*
%TO.P,IC1,21*%
%TO.N,Net-(IC1-Pad21)*%
X172584000Y-90170000D03*
%TO.P,IC1,20*%
%TO.N,Net-(IC1-Pad20)*%
X172584000Y-91440000D03*
%TO.P,IC1,19*%
%TO.N,Net-(IC1-Pad19)*%
X155584000Y-91440000D03*
%TO.P,IC1,18*%
%TO.N,Net-(IC1-Pad18)*%
X155584000Y-90170000D03*
%TO.P,IC1,17*%
%TO.N,Net-(IC1-Pad17)*%
X155584000Y-88900000D03*
%TO.P,IC1,16*%
%TO.N,Net-(IC1-Pad16)*%
X155584000Y-87630000D03*
%TO.P,IC1,15*%
%TO.N,GND*%
X155584000Y-86360000D03*
%TO.P,IC1,14*%
%TO.N,Net-(IC1-Pad14)*%
X155584000Y-85090000D03*
%TO.P,IC1,13*%
%TO.N,Net-(IC1-Pad13)*%
X155584000Y-83820000D03*
%TO.P,IC1,12*%
%TO.N,Net-(IC1-Pad12)*%
X155584000Y-82550000D03*
%TO.P,IC1,11*%
%TO.N,Net-(IC1-Pad11)*%
X155584000Y-81280000D03*
%TO.P,IC1,10*%
%TO.N,Net-(IC1-Pad10)*%
X155584000Y-80010000D03*
%TO.P,IC1,9*%
%TO.N,Net-(IC1-Pad9)*%
X155584000Y-78740000D03*
%TO.P,IC1,8*%
%TO.N,Net-(IC1-Pad8)*%
X155584000Y-77470000D03*
%TO.P,IC1,7*%
%TO.N,Net-(IC1-Pad7)*%
X155584000Y-76200000D03*
%TO.P,IC1,6*%
%TO.N,Net-(IC1-Pad6)*%
X155584000Y-74930000D03*
%TO.P,IC1,5*%
%TO.N,Net-(IC1-Pad5)*%
X155584000Y-73660000D03*
%TO.P,IC1,4*%
%TO.N,Net-(IC1-Pad4)*%
X155584000Y-72390000D03*
%TO.P,IC1,3*%
%TO.N,Net-(C1-Pad2)*%
X155584000Y-71120000D03*
%TO.P,IC1,2*%
%TO.N,+3V3*%
X155584000Y-69850000D03*
%TO.P,IC1,1*%
%TO.N,GND*%
X155584000Y-68580000D03*
%TD*%
D14*
%TO.P,J1,1*%
%TO.N,GND*%
X152908000Y-91186000D03*
D15*
%TO.P,J1,2*%
%TO.N,Net-(IC1-Pad25)*%
X152908000Y-88646000D03*
%TO.P,J1,3*%
%TO.N,Net-(IC1-Pad34)*%
X152908000Y-86106000D03*
%TO.P,J1,4*%
%TO.N,Net-(IC1-Pad35)*%
X152908000Y-83566000D03*
%TD*%
%TO.P,J2,2*%
%TO.N,Net-(IC2-Pad9)*%
X152908000Y-64008000D03*
D14*
%TO.P,J2,1*%
%TO.N,Net-(IC2-Pad7)*%
X152908000Y-66548000D03*
%TD*%
%TO.P,R1,1*%
%TO.N,+3V3*%
%TA.AperFunction,SMDPad,CuDef*%
G36*
G01*
X152633000Y-75483000D02*
X153183000Y-75483000D01*
G75*
G02*
X153383000Y-75683000I0J-200000D01*
G01*
X153383000Y-76083000D01*
G75*
G02*
X153183000Y-76283000I-200000J0D01*
G01*
X152633000Y-76283000D01*
G75*
G02*
X152433000Y-76083000I0J200000D01*
G01*
X152433000Y-75683000D01*
G75*
G02*
X152633000Y-75483000I200000J0D01*
G01*
G37*
%TD.AperFunction*%
%TO.P,R1,2*%
%TO.N,Net-(C1-Pad2)*%
%TA.AperFunction,SMDPad,CuDef*%
G36*
G01*
X152633000Y-77133000D02*
X153183000Y-77133000D01*
G75*
G02*
X153383000Y-77333000I0J-200000D01*
G01*
X153383000Y-77733000D01*
G75*
G02*
X153183000Y-77933000I-200000J0D01*
G01*
X152633000Y-77933000D01*
G75*
G02*
X152433000Y-77733000I0J200000D01*
G01*
X152433000Y-77333000D01*
G75*
G02*
X152633000Y-77133000I200000J0D01*
G01*
G37*
%TD.AperFunction*%
%TD*%
%TO.P,C3,1*%
%TO.N,GND*%
%TA.AperFunction,SMDPad,CuDef*%
G36*
G01*
X153158000Y-74631000D02*
X152658000Y-74631000D01*
G75*
G02*
X152433000Y-74406000I0J225000D01*
G01*
X152433000Y-73956000D01*
G75*
G02*
X152658000Y-73731000I225000J0D01*
G01*
X153158000Y-73731000D01*
G75*
G02*
X153383000Y-73956000I0J-225000D01*
G01*
X153383000Y-74406000D01*
G75*
G02*
X153158000Y-74631000I-225000J0D01*
G01*
G37*
%TD.AperFunction*%
%TO.P,C3,2*%
%TO.N,+3V3*%
%TA.AperFunction,SMDPad,CuDef*%
G36*
G01*
X153158000Y-73081000D02*
X152658000Y-73081000D01*
G75*
G02*
X152433000Y-72856000I0J225000D01*
G01*
X152433000Y-72406000D01*
G75*
G02*
X152658000Y-72181000I225000J0D01*
G01*
X153158000Y-72181000D01*
G75*
G02*
X153383000Y-72406000I0J-225000D01*
G01*
X153383000Y-72856000D01*
G75*
G02*
X153158000Y-73081000I-225000J0D01*
G01*
G37*
%TD.AperFunction*%
%TD*%
%TO.P,C2,1*%
%TO.N,GND*%
%TA.AperFunction,SMDPad,CuDef*%
G36*
G01*
X152658000Y-68879000D02*
X153158000Y-68879000D01*
G75*
G02*
X153383000Y-69104000I0J-225000D01*
G01*
X153383000Y-69554000D01*
G75*
G02*
X153158000Y-69779000I-225000J0D01*
G01*
X152658000Y-69779000D01*
G75*
G02*
X152433000Y-69554000I0J225000D01*
G01*
X152433000Y-69104000D01*
G75*
G02*
X152658000Y-68879000I225000J0D01*
G01*
G37*
%TD.AperFunction*%
%TO.P,C2,2*%
%TO.N,+3V3*%
%TA.AperFunction,SMDPad,CuDef*%
G36*
G01*
X152658000Y-70429000D02*
X153158000Y-70429000D01*
G75*
G02*
X153383000Y-70654000I0J-225000D01*
G01*
X153383000Y-71104000D01*
G75*
G02*
X153158000Y-71329000I-225000J0D01*
G01*
X152658000Y-71329000D01*
G75*
G02*
X152433000Y-71104000I0J225000D01*
G01*
X152433000Y-70654000D01*
G75*
G02*
X152658000Y-70429000I225000J0D01*
G01*
G37*
%TD.AperFunction*%
%TD*%
%TO.P,C1,1*%
%TO.N,GND*%
%TA.AperFunction,SMDPad,CuDef*%
G36*
G01*
X153158000Y-81235000D02*
X152658000Y-81235000D01*
G75*
G02*
X152433000Y-81010000I0J225000D01*
G01*
X152433000Y-80560000D01*
G75*
G02*
X152658000Y-80335000I225000J0D01*
G01*
X153158000Y-80335000D01*
G75*
G02*
X153383000Y-80560000I0J-225000D01*
G01*
X153383000Y-81010000D01*
G75*
G02*
X153158000Y-81235000I-225000J0D01*
G01*
G37*
%TD.AperFunction*%
%TO.P,C1,2*%
%TO.N,Net-(C1-Pad2)*%
%TA.AperFunction,SMDPad,CuDef*%
G36*
G01*
X153158000Y-79685000D02*
X152658000Y-79685000D01*
G75*
G02*
X152433000Y-79460000I0J225000D01*
G01*
X152433000Y-79010000D01*
G75*
G02*
X152658000Y-78785000I225000J0D01*
G01*
X153158000Y-78785000D01*
G75*
G02*
X153383000Y-79010000I0J-225000D01*
G01*
X153383000Y-79460000D01*
G75*
G02*
X153158000Y-79685000I-225000J0D01*
G01*
G37*
%TD.AperFunction*%
%TD*%
D16*
%TO.N,Net-(IC1-Pad35)*%
X159640235Y-82583719D03*
%TO.N,Net-(IC1-Pad34)*%
X159622540Y-83383535D03*
%TO.N,Net-(IC1-Pad25)*%
X159639000Y-84200994D03*
D17*
%TO.N,Net-(IC1-Pad11)*%
X160528000Y-102235000D03*
X166116000Y-102235006D03*
D16*
%TO.N,GND*%
X170942000Y-68580000D03*
X153797000Y-80264000D03*
X153924000Y-68326000D03*
X157353000Y-69342000D03*
%TO.N,+3V3*%
X154051000Y-70993000D03*
X159512000Y-91313000D03*
X159639000Y-85090000D03*
X155321000Y-93091000D03*
%TD*%
D18*
%TO.N,Net-(IC1-Pad35)*%
X172584000Y-72390000D02*
X171334000Y-72390000D01*
X170307000Y-75257501D02*
X162980782Y-82583719D01*
X171334000Y-72390000D02*
X170307000Y-73417000D01*
X170307000Y-73417000D02*
X170307000Y-75257501D01*
X162980782Y-82583719D02*
X159640235Y-82583719D01*
%TO.N,Net-(IC1-Pad34)*%
X170815000Y-75565000D02*
X162996465Y-83383535D01*
X162996465Y-83383535D02*
X159622540Y-83383535D01*
X172584000Y-73660000D02*
X171323000Y-73660000D01*
X171323000Y-73660000D02*
X170815000Y-74168000D01*
X170815000Y-74168000D02*
X170815000Y-75565000D01*
%TO.N,Net-(IC1-Pad25)*%
X159765994Y-84074000D02*
X159639000Y-84200994D01*
X163068000Y-84074000D02*
X159765994Y-84074000D01*
X164084000Y-85090000D02*
X163068000Y-84074000D01*
X172584000Y-85090000D02*
X164084000Y-85090000D01*
%TO.N,Net-(IC1-Pad16)*%
X158137001Y-94576999D02*
X156909001Y-93348999D01*
X156937000Y-97187000D02*
X158062000Y-97187000D01*
X156909001Y-93348999D02*
X156909001Y-88189999D01*
X156909001Y-88189999D02*
X156349002Y-87630000D01*
X158062000Y-97187000D02*
X158137001Y-97111999D01*
X156349002Y-87630000D02*
X155584000Y-87630000D01*
X158137001Y-97111999D02*
X158137001Y-94576999D01*
%TO.N,Net-(IC1-Pad12)*%
X157359012Y-93162599D02*
X157359012Y-83075012D01*
X158587012Y-97661988D02*
X158587012Y-94390599D01*
X158587012Y-94390599D02*
X157359012Y-93162599D01*
X158062000Y-98187000D02*
X158587012Y-97661988D01*
X156937000Y-98187000D02*
X158062000Y-98187000D01*
X157359012Y-83075012D02*
X156834000Y-82550000D01*
X156834000Y-82550000D02*
X155584000Y-82550000D01*
%TO.N,Net-(IC1-Pad11)*%
X167073000Y-99230000D02*
X167073000Y-95080000D01*
X157809023Y-92658013D02*
X158623000Y-93471990D01*
X157809023Y-82255023D02*
X157809023Y-92658013D01*
X156834000Y-81280000D02*
X157809023Y-82255023D01*
X155584000Y-81280000D02*
X156834000Y-81280000D01*
X159037022Y-100744022D02*
X160528000Y-102235000D01*
X159037022Y-93886012D02*
X159037022Y-100744022D01*
X158623000Y-93471990D02*
X159037022Y-93886012D01*
X167073000Y-99230000D02*
X167073000Y-101278006D01*
X167073000Y-101278006D02*
X166116000Y-102235006D01*
%TO.N,Net-(IC2-Pad9)*%
X154110081Y-64008000D02*
X152908000Y-64008000D01*
X159962011Y-93033011D02*
X158709045Y-91780045D01*
X158709045Y-68606964D02*
X154110081Y-64008000D01*
X159962011Y-95187011D02*
X159962011Y-93033011D01*
X160962000Y-96187000D02*
X159962011Y-95187011D01*
X158709045Y-91780045D02*
X158709045Y-68606964D01*
X162087000Y-96187000D02*
X160962000Y-96187000D01*
%TO.N,Net-(IC2-Pad7)*%
X155587002Y-66548000D02*
X152908000Y-66548000D01*
X160962000Y-98187000D02*
X159512000Y-96737000D01*
X158259034Y-92092034D02*
X158259034Y-69220032D01*
X162087000Y-98187000D02*
X160962000Y-98187000D01*
X159512000Y-96737000D02*
X159512000Y-93345000D01*
X159512000Y-93345000D02*
X158259034Y-92092034D01*
X158259034Y-69220032D02*
X155587002Y-66548000D01*
%TO.N,Net-(C1-Pad2)*%
X152908000Y-78359000D02*
X152908000Y-77533000D01*
X152908000Y-79235000D02*
X152908000Y-78359000D01*
X153670000Y-78359000D02*
X152908000Y-78359000D01*
X154178000Y-77851000D02*
X153670000Y-78359000D01*
X154178000Y-71882000D02*
X154178000Y-77851000D01*
X154940000Y-71120000D02*
X154178000Y-71882000D01*
X155584000Y-71120000D02*
X154940000Y-71120000D01*
%TO.N,GND*%
X153276000Y-80785000D02*
X153797000Y-80264000D01*
X152908000Y-80785000D02*
X153276000Y-80785000D01*
X152107990Y-70129010D02*
X152908000Y-69329000D01*
X152107990Y-73380990D02*
X152107990Y-70129010D01*
X152908000Y-74181000D02*
X152107990Y-73380990D01*
X154083001Y-90010999D02*
X152908000Y-91186000D01*
X154083001Y-87095997D02*
X154083001Y-90010999D01*
X154818998Y-86360000D02*
X154083001Y-87095997D01*
X155584000Y-86360000D02*
X154818998Y-86360000D01*
X156591000Y-68580000D02*
X157353000Y-69342000D01*
X155584000Y-68580000D02*
X156591000Y-68580000D01*
%TO.N,+3V3*%
X153937000Y-69850000D02*
X152908000Y-70879000D01*
X155584000Y-69850000D02*
X153937000Y-69850000D01*
X153289000Y-71755000D02*
X154051000Y-70993000D01*
X152908000Y-71755000D02*
X153289000Y-71755000D01*
X152908000Y-72631000D02*
X152908000Y-71755000D01*
X152908000Y-71755000D02*
X152908000Y-70879000D01*
X153708010Y-71335990D02*
X154051000Y-70993000D01*
X153708010Y-75557990D02*
X153708010Y-71335990D01*
X153383000Y-75883000D02*
X153708010Y-75557990D01*
X152908000Y-75883000D02*
X153383000Y-75883000D01*
X159512000Y-85217000D02*
X159639000Y-85090000D01*
X159512000Y-91313000D02*
X159512000Y-85217000D01*
X156937000Y-95187000D02*
X156937000Y-94707000D01*
X156937000Y-94707000D02*
X155321000Y-93091000D01*
D19*
%TO.N,/TOUCH*%
X162813999Y-154940000D02*
X162813999Y-113998000D01*
D20*
X167894000Y-86360000D02*
X172584000Y-86360000D01*
X164846000Y-89408000D02*
X167894000Y-86360000D01*
X164846000Y-106553000D02*
X164846000Y-89408000D01*
X162813999Y-108585001D02*
X164846000Y-106553000D01*
X162813999Y-113998000D02*
X162813999Y-108585001D01*
%TD*%
D21*
%TO.N,GND*%
X161496428Y-107704628D02*
X161349992Y-107978590D01*
X161259818Y-108275855D01*
X161229369Y-108585001D01*
X161237000Y-108662478D01*
X161237000Y-109641176D01*
X161034756Y-109702526D01*
X160230938Y-110132175D01*
X159526386Y-110710386D01*
X158948175Y-111414938D01*
X158518526Y-112218756D01*
X158253949Y-113090949D01*
X158187000Y-113770692D01*
X158186999Y-155167307D01*
X158253948Y-155847050D01*
X158518525Y-156719243D01*
X158948174Y-157523061D01*
X159526385Y-158227614D01*
X160230937Y-158805825D01*
X161034755Y-159235474D01*
X161906948Y-159500051D01*
X162813999Y-159589388D01*
X163721049Y-159500051D01*
X164593242Y-159235474D01*
X165397060Y-158805825D01*
X166101613Y-158227614D01*
X166679824Y-157523062D01*
X167109473Y-156719244D01*
X167374050Y-155847051D01*
X167440999Y-155167308D01*
X167440999Y-113770692D01*
X167374050Y-113090949D01*
X167109473Y-112218756D01*
X166679824Y-111414938D01*
X166101613Y-110710386D01*
X165397061Y-110132175D01*
X164593243Y-109702526D01*
X164390999Y-109641176D01*
X164390999Y-109238215D01*
X165906322Y-107722892D01*
X165966503Y-107673503D01*
X166052266Y-107569000D01*
X168520000Y-107569000D01*
X168520001Y-156530387D01*
X168512488Y-156612171D01*
X168504485Y-156639280D01*
X168475345Y-156696404D01*
X162814000Y-165769938D01*
X157155972Y-156701722D01*
X157120835Y-156630956D01*
X157113424Y-156603686D01*
X157108000Y-156536662D01*
X157108000Y-107569000D01*
X161607735Y-107569000D01*
X161496428Y-107704628D01*
%TA.AperFunction,Conductor*%
D22*
G36*
X161496428Y-107704628D02*
G01*
X161349992Y-107978590D01*
X161259818Y-108275855D01*
X161229369Y-108585001D01*
X161237000Y-108662478D01*
X161237000Y-109641176D01*
X161034756Y-109702526D01*
X160230938Y-110132175D01*
X159526386Y-110710386D01*
X158948175Y-111414938D01*
X158518526Y-112218756D01*
X158253949Y-113090949D01*
X158187000Y-113770692D01*
X158186999Y-155167307D01*
X158253948Y-155847050D01*
X158518525Y-156719243D01*
X158948174Y-157523061D01*
X159526385Y-158227614D01*
X160230937Y-158805825D01*
X161034755Y-159235474D01*
X161906948Y-159500051D01*
X162813999Y-159589388D01*
X163721049Y-159500051D01*
X164593242Y-159235474D01*
X165397060Y-158805825D01*
X166101613Y-158227614D01*
X166679824Y-157523062D01*
X167109473Y-156719244D01*
X167374050Y-155847051D01*
X167440999Y-155167308D01*
X167440999Y-113770692D01*
X167374050Y-113090949D01*
X167109473Y-112218756D01*
X166679824Y-111414938D01*
X166101613Y-110710386D01*
X165397061Y-110132175D01*
X164593243Y-109702526D01*
X164390999Y-109641176D01*
X164390999Y-109238215D01*
X165906322Y-107722892D01*
X165966503Y-107673503D01*
X166052266Y-107569000D01*
X168520000Y-107569000D01*
X168520001Y-156530387D01*
X168512488Y-156612171D01*
X168504485Y-156639280D01*
X168475345Y-156696404D01*
X162814000Y-165769938D01*
X157155972Y-156701722D01*
X157120835Y-156630956D01*
X157113424Y-156603686D01*
X157108000Y-156536662D01*
X157108000Y-107569000D01*
X161607735Y-107569000D01*
X161496428Y-107704628D01*
G37*
%TD.AperFunction*%
%TD*%
D21*
%TO.N,GND*%
X163520200Y-85601002D02*
X163543999Y-85630001D01*
X163572997Y-85653799D01*
X163659723Y-85724974D01*
X163770489Y-85784180D01*
X163791753Y-85795546D01*
X163935014Y-85839003D01*
X164046667Y-85850000D01*
X164046677Y-85850000D01*
X164084000Y-85853676D01*
X164121322Y-85850000D01*
X166869578Y-85850000D01*
X164116470Y-88603109D01*
X164075079Y-88637078D01*
X164041110Y-88678469D01*
X164041105Y-88678474D01*
X164018670Y-88705812D01*
X163939492Y-88802290D01*
X163858575Y-88953675D01*
X163838742Y-88990780D01*
X163776700Y-89195303D01*
X163755752Y-89408000D01*
X163761001Y-89461296D01*
X163761000Y-106103578D01*
X162084469Y-107780110D01*
X162043078Y-107814079D01*
X162009109Y-107855470D01*
X162009104Y-107855475D01*
X161955226Y-107921126D01*
X161907491Y-107979291D01*
X161806741Y-108167781D01*
X161744699Y-108372304D01*
X161723751Y-108585001D01*
X161729000Y-108638297D01*
X161729000Y-109568652D01*
X160975471Y-109702343D01*
X157106942Y-109613597D01*
X157106942Y-104855067D01*
X157102886Y-104823227D01*
X157094312Y-104799854D01*
X156383112Y-103326654D01*
X156374339Y-103311310D01*
X156371494Y-103307843D01*
X154690238Y-99537000D01*
X155423928Y-99537000D01*
X155436188Y-99661482D01*
X155472498Y-99781180D01*
X155531463Y-99891494D01*
X155610815Y-99988185D01*
X155707506Y-100067537D01*
X155817820Y-100126502D01*
X155937518Y-100162812D01*
X156062000Y-100175072D01*
X156651250Y-100172000D01*
X156810000Y-100013250D01*
X156810000Y-99314000D01*
X155585750Y-99314000D01*
X155427000Y-99472750D01*
X155423928Y-99537000D01*
X154690238Y-99537000D01*
X152109564Y-93748878D01*
X152062158Y-93606059D01*
X152044000Y-93461564D01*
X152044000Y-92229608D01*
X152059209Y-92214399D01*
X152136843Y-92463472D01*
X152400883Y-92589371D01*
X152684411Y-92661339D01*
X152976531Y-92676611D01*
X153266019Y-92634599D01*
X153541747Y-92536919D01*
X153679157Y-92463472D01*
X153756792Y-92214397D01*
X152908000Y-91365605D01*
X152893858Y-91379748D01*
X152714253Y-91200143D01*
X152728395Y-91186000D01*
X152714253Y-91171858D01*
X152893858Y-90992253D01*
X152908000Y-91006395D01*
X152922143Y-90992253D01*
X153101748Y-91171858D01*
X153087605Y-91186000D01*
X153936397Y-92034792D01*
X153961934Y-92026832D01*
X153994498Y-92134180D01*
X154053463Y-92244494D01*
X154132815Y-92341185D01*
X154229506Y-92420537D01*
X154339820Y-92479502D01*
X154459518Y-92515812D01*
X154573324Y-92527021D01*
X154492414Y-92648111D01*
X154421932Y-92818271D01*
X154386000Y-92998911D01*
X154386000Y-93183089D01*
X154421932Y-93363729D01*
X154492414Y-93533889D01*
X154594738Y-93687028D01*
X154724972Y-93817262D01*
X154878111Y-93919586D01*
X155048271Y-93990068D01*
X155169351Y-94014153D01*
X155579352Y-94424153D01*
X155531463Y-94482506D01*
X155472498Y-94592820D01*
X155436188Y-94712518D01*
X155423928Y-94837000D01*
X155423928Y-95537000D01*
X155436188Y-95661482D01*
X155443929Y-95687000D01*
X155436188Y-95712518D01*
X155423928Y-95837000D01*
X155423928Y-96537000D01*
X155436188Y-96661482D01*
X155443929Y-96687000D01*
X155436188Y-96712518D01*
X155423928Y-96837000D01*
X155423928Y-97537000D01*
X155436188Y-97661482D01*
X155443929Y-97687000D01*
X155436188Y-97712518D01*
X155423928Y-97837000D01*
X155423928Y-98537000D01*
X155436188Y-98661482D01*
X155443929Y-98687000D01*
X155436188Y-98712518D01*
X155423928Y-98837000D01*
X155427000Y-98901250D01*
X155585750Y-99060000D01*
X155698322Y-99060000D01*
X155707506Y-99067537D01*
X155817820Y-99126502D01*
X155937518Y-99162812D01*
X156062000Y-99175072D01*
X157084000Y-99175072D01*
X157084000Y-99314000D01*
X157064000Y-99314000D01*
X157064000Y-100013250D01*
X157222750Y-100172000D01*
X157812000Y-100175072D01*
X157936482Y-100162812D01*
X158056180Y-100126502D01*
X158166494Y-100067537D01*
X158263185Y-99988185D01*
X158277023Y-99971323D01*
X158277023Y-100706690D01*
X158273346Y-100744022D01*
X158288020Y-100893007D01*
X158331476Y-101036268D01*
X158402048Y-101168298D01*
X158473223Y-101255024D01*
X158497022Y-101284023D01*
X158526020Y-101307821D01*
X159493000Y-102274802D01*
X159493000Y-102336939D01*
X159532774Y-102536898D01*
X159610795Y-102725256D01*
X159724063Y-102894774D01*
X159868226Y-103038937D01*
X160037744Y-103152205D01*
X160226102Y-103230226D01*
X160426061Y-103270000D01*
X160629939Y-103270000D01*
X160829898Y-103230226D01*
X161018256Y-103152205D01*
X161187774Y-103038937D01*
X161331937Y-102894774D01*
X161445205Y-102725256D01*
X161523226Y-102536898D01*
X161563000Y-102336939D01*
X161563000Y-102133061D01*
X161523226Y-101933102D01*
X161445205Y-101744744D01*
X161331937Y-101575226D01*
X161187774Y-101431063D01*
X161018256Y-101317795D01*
X160829898Y-101239774D01*
X160629939Y-101200000D01*
X160567802Y-101200000D01*
X159797022Y-100429221D01*
X159797022Y-99537000D01*
X160573928Y-99537000D01*
X160586188Y-99661482D01*
X160622498Y-99781180D01*
X160681463Y-99891494D01*
X160760815Y-99988185D01*
X160857506Y-100067537D01*
X160967820Y-100126502D01*
X161087518Y-100162812D01*
X161212000Y-100175072D01*
X161801250Y-100172000D01*
X161960000Y-100013250D01*
X161960000Y-99314000D01*
X162214000Y-99314000D01*
X162214000Y-100013250D01*
X162372750Y-100172000D01*
X162962000Y-100175072D01*
X163086482Y-100162812D01*
X163206180Y-100126502D01*
X163316494Y-100067537D01*
X163413185Y-99988185D01*
X163492537Y-99891494D01*
X163551502Y-99781180D01*
X163587812Y-99661482D01*
X163600072Y-99537000D01*
X163597000Y-99472750D01*
X163438250Y-99314000D01*
X162214000Y-99314000D01*
X161960000Y-99314000D01*
X160735750Y-99314000D01*
X160577000Y-99472750D01*
X160573928Y-99537000D01*
X159797022Y-99537000D01*
X159797022Y-98096824D01*
X160398201Y-98698003D01*
X160421999Y-98727001D01*
X160537724Y-98821974D01*
X160574140Y-98841439D01*
X160577000Y-98901250D01*
X160735750Y-99060000D01*
X160848322Y-99060000D01*
X160857506Y-99067537D01*
X160967820Y-99126502D01*
X161087518Y-99162812D01*
X161212000Y-99175072D01*
X162962000Y-99175072D01*
X163086482Y-99162812D01*
X163206180Y-99126502D01*
X163316494Y-99067537D01*
X163325678Y-99060000D01*
X163438250Y-99060000D01*
X163597000Y-98901250D01*
X163600072Y-98837000D01*
X163587812Y-98712518D01*
X163580071Y-98687000D01*
X163587812Y-98661482D01*
X163600072Y-98537000D01*
X163600072Y-97837000D01*
X163587812Y-97712518D01*
X163580071Y-97687000D01*
X163587812Y-97661482D01*
X163600072Y-97537000D01*
X163600072Y-96837000D01*
X163587812Y-96712518D01*
X163580071Y-96687000D01*
X163587812Y-96661482D01*
X163600072Y-96537000D01*
X163600072Y-95837000D01*
X163587812Y-95712518D01*
X163580071Y-95687000D01*
X163587812Y-95661482D01*
X163600072Y-95537000D01*
X163600072Y-94837000D01*
X163587812Y-94712518D01*
X163551502Y-94592820D01*
X163492537Y-94482506D01*
X163413185Y-94385815D01*
X163316494Y-94306463D01*
X163206180Y-94247498D01*
X163086482Y-94211188D01*
X162962000Y-94198928D01*
X161212000Y-94198928D01*
X161087518Y-94211188D01*
X160967820Y-94247498D01*
X160857506Y-94306463D01*
X160760815Y-94385815D01*
X160722011Y-94433098D01*
X160722011Y-93070344D01*
X160725688Y-93033011D01*
X160711014Y-92884025D01*
X160667557Y-92740764D01*
X160596985Y-92608735D01*
X160525810Y-92522008D01*
X160502012Y-92493010D01*
X160473014Y-92469212D01*
X160069085Y-92065283D01*
X160108028Y-92039262D01*
X160238262Y-91909028D01*
X160340586Y-91755889D01*
X160411068Y-91585729D01*
X160447000Y-91405089D01*
X160447000Y-91220911D01*
X160411068Y-91040271D01*
X160340586Y-90870111D01*
X160272000Y-90767465D01*
X160272000Y-85779290D01*
X160365262Y-85686028D01*
X160467586Y-85532889D01*
X160538068Y-85362729D01*
X160574000Y-85182089D01*
X160574000Y-84997911D01*
X160541396Y-84834000D01*
X162753199Y-84834000D01*
X163520200Y-85601002D01*
%TA.AperFunction,Conductor*%
D22*
G36*
X163520200Y-85601002D02*
G01*
X163543999Y-85630001D01*
X163572997Y-85653799D01*
X163659723Y-85724974D01*
X163770489Y-85784180D01*
X163791753Y-85795546D01*
X163935014Y-85839003D01*
X164046667Y-85850000D01*
X164046677Y-85850000D01*
X164084000Y-85853676D01*
X164121322Y-85850000D01*
X166869578Y-85850000D01*
X164116470Y-88603109D01*
X164075079Y-88637078D01*
X164041110Y-88678469D01*
X164041105Y-88678474D01*
X164018670Y-88705812D01*
X163939492Y-88802290D01*
X163858575Y-88953675D01*
X163838742Y-88990780D01*
X163776700Y-89195303D01*
X163755752Y-89408000D01*
X163761001Y-89461296D01*
X163761000Y-106103578D01*
X162084469Y-107780110D01*
X162043078Y-107814079D01*
X162009109Y-107855470D01*
X162009104Y-107855475D01*
X161955226Y-107921126D01*
X161907491Y-107979291D01*
X161806741Y-108167781D01*
X161744699Y-108372304D01*
X161723751Y-108585001D01*
X161729000Y-108638297D01*
X161729000Y-109568652D01*
X160975471Y-109702343D01*
X157106942Y-109613597D01*
X157106942Y-104855067D01*
X157102886Y-104823227D01*
X157094312Y-104799854D01*
X156383112Y-103326654D01*
X156374339Y-103311310D01*
X156371494Y-103307843D01*
X154690238Y-99537000D01*
X155423928Y-99537000D01*
X155436188Y-99661482D01*
X155472498Y-99781180D01*
X155531463Y-99891494D01*
X155610815Y-99988185D01*
X155707506Y-100067537D01*
X155817820Y-100126502D01*
X155937518Y-100162812D01*
X156062000Y-100175072D01*
X156651250Y-100172000D01*
X156810000Y-100013250D01*
X156810000Y-99314000D01*
X155585750Y-99314000D01*
X155427000Y-99472750D01*
X155423928Y-99537000D01*
X154690238Y-99537000D01*
X152109564Y-93748878D01*
X152062158Y-93606059D01*
X152044000Y-93461564D01*
X152044000Y-92229608D01*
X152059209Y-92214399D01*
X152136843Y-92463472D01*
X152400883Y-92589371D01*
X152684411Y-92661339D01*
X152976531Y-92676611D01*
X153266019Y-92634599D01*
X153541747Y-92536919D01*
X153679157Y-92463472D01*
X153756792Y-92214397D01*
X152908000Y-91365605D01*
X152893858Y-91379748D01*
X152714253Y-91200143D01*
X152728395Y-91186000D01*
X152714253Y-91171858D01*
X152893858Y-90992253D01*
X152908000Y-91006395D01*
X152922143Y-90992253D01*
X153101748Y-91171858D01*
X153087605Y-91186000D01*
X153936397Y-92034792D01*
X153961934Y-92026832D01*
X153994498Y-92134180D01*
X154053463Y-92244494D01*
X154132815Y-92341185D01*
X154229506Y-92420537D01*
X154339820Y-92479502D01*
X154459518Y-92515812D01*
X154573324Y-92527021D01*
X154492414Y-92648111D01*
X154421932Y-92818271D01*
X154386000Y-92998911D01*
X154386000Y-93183089D01*
X154421932Y-93363729D01*
X154492414Y-93533889D01*
X154594738Y-93687028D01*
X154724972Y-93817262D01*
X154878111Y-93919586D01*
X155048271Y-93990068D01*
X155169351Y-94014153D01*
X155579352Y-94424153D01*
X155531463Y-94482506D01*
X155472498Y-94592820D01*
X155436188Y-94712518D01*
X155423928Y-94837000D01*
X155423928Y-95537000D01*
X155436188Y-95661482D01*
X155443929Y-95687000D01*
X155436188Y-95712518D01*
X155423928Y-95837000D01*
X155423928Y-96537000D01*
X155436188Y-96661482D01*
X155443929Y-96687000D01*
X155436188Y-96712518D01*
X155423928Y-96837000D01*
X155423928Y-97537000D01*
X155436188Y-97661482D01*
X155443929Y-97687000D01*
X155436188Y-97712518D01*
X155423928Y-97837000D01*
X155423928Y-98537000D01*
X155436188Y-98661482D01*
X155443929Y-98687000D01*
X155436188Y-98712518D01*
X155423928Y-98837000D01*
X155427000Y-98901250D01*
X155585750Y-99060000D01*
X155698322Y-99060000D01*
X155707506Y-99067537D01*
X155817820Y-99126502D01*
X155937518Y-99162812D01*
X156062000Y-99175072D01*
X157084000Y-99175072D01*
X157084000Y-99314000D01*
X157064000Y-99314000D01*
X157064000Y-100013250D01*
X157222750Y-100172000D01*
X157812000Y-100175072D01*
X157936482Y-100162812D01*
X158056180Y-100126502D01*
X158166494Y-100067537D01*
X158263185Y-99988185D01*
X158277023Y-99971323D01*
X158277023Y-100706690D01*
X158273346Y-100744022D01*
X158288020Y-100893007D01*
X158331476Y-101036268D01*
X158402048Y-101168298D01*
X158473223Y-101255024D01*
X158497022Y-101284023D01*
X158526020Y-101307821D01*
X159493000Y-102274802D01*
X159493000Y-102336939D01*
X159532774Y-102536898D01*
X159610795Y-102725256D01*
X159724063Y-102894774D01*
X159868226Y-103038937D01*
X160037744Y-103152205D01*
X160226102Y-103230226D01*
X160426061Y-103270000D01*
X160629939Y-103270000D01*
X160829898Y-103230226D01*
X161018256Y-103152205D01*
X161187774Y-103038937D01*
X161331937Y-102894774D01*
X161445205Y-102725256D01*
X161523226Y-102536898D01*
X161563000Y-102336939D01*
X161563000Y-102133061D01*
X161523226Y-101933102D01*
X161445205Y-101744744D01*
X161331937Y-101575226D01*
X161187774Y-101431063D01*
X161018256Y-101317795D01*
X160829898Y-101239774D01*
X160629939Y-101200000D01*
X160567802Y-101200000D01*
X159797022Y-100429221D01*
X159797022Y-99537000D01*
X160573928Y-99537000D01*
X160586188Y-99661482D01*
X160622498Y-99781180D01*
X160681463Y-99891494D01*
X160760815Y-99988185D01*
X160857506Y-100067537D01*
X160967820Y-100126502D01*
X161087518Y-100162812D01*
X161212000Y-100175072D01*
X161801250Y-100172000D01*
X161960000Y-100013250D01*
X161960000Y-99314000D01*
X162214000Y-99314000D01*
X162214000Y-100013250D01*
X162372750Y-100172000D01*
X162962000Y-100175072D01*
X163086482Y-100162812D01*
X163206180Y-100126502D01*
X163316494Y-100067537D01*
X163413185Y-99988185D01*
X163492537Y-99891494D01*
X163551502Y-99781180D01*
X163587812Y-99661482D01*
X163600072Y-99537000D01*
X163597000Y-99472750D01*
X163438250Y-99314000D01*
X162214000Y-99314000D01*
X161960000Y-99314000D01*
X160735750Y-99314000D01*
X160577000Y-99472750D01*
X160573928Y-99537000D01*
X159797022Y-99537000D01*
X159797022Y-98096824D01*
X160398201Y-98698003D01*
X160421999Y-98727001D01*
X160537724Y-98821974D01*
X160574140Y-98841439D01*
X160577000Y-98901250D01*
X160735750Y-99060000D01*
X160848322Y-99060000D01*
X160857506Y-99067537D01*
X160967820Y-99126502D01*
X161087518Y-99162812D01*
X161212000Y-99175072D01*
X162962000Y-99175072D01*
X163086482Y-99162812D01*
X163206180Y-99126502D01*
X163316494Y-99067537D01*
X163325678Y-99060000D01*
X163438250Y-99060000D01*
X163597000Y-98901250D01*
X163600072Y-98837000D01*
X163587812Y-98712518D01*
X163580071Y-98687000D01*
X163587812Y-98661482D01*
X163600072Y-98537000D01*
X163600072Y-97837000D01*
X163587812Y-97712518D01*
X163580071Y-97687000D01*
X163587812Y-97661482D01*
X163600072Y-97537000D01*
X163600072Y-96837000D01*
X163587812Y-96712518D01*
X163580071Y-96687000D01*
X163587812Y-96661482D01*
X163600072Y-96537000D01*
X163600072Y-95837000D01*
X163587812Y-95712518D01*
X163580071Y-95687000D01*
X163587812Y-95661482D01*
X163600072Y-95537000D01*
X163600072Y-94837000D01*
X163587812Y-94712518D01*
X163551502Y-94592820D01*
X163492537Y-94482506D01*
X163413185Y-94385815D01*
X163316494Y-94306463D01*
X163206180Y-94247498D01*
X163086482Y-94211188D01*
X162962000Y-94198928D01*
X161212000Y-94198928D01*
X161087518Y-94211188D01*
X160967820Y-94247498D01*
X160857506Y-94306463D01*
X160760815Y-94385815D01*
X160722011Y-94433098D01*
X160722011Y-93070344D01*
X160725688Y-93033011D01*
X160711014Y-92884025D01*
X160667557Y-92740764D01*
X160596985Y-92608735D01*
X160525810Y-92522008D01*
X160502012Y-92493010D01*
X160473014Y-92469212D01*
X160069085Y-92065283D01*
X160108028Y-92039262D01*
X160238262Y-91909028D01*
X160340586Y-91755889D01*
X160411068Y-91585729D01*
X160447000Y-91405089D01*
X160447000Y-91220911D01*
X160411068Y-91040271D01*
X160340586Y-90870111D01*
X160272000Y-90767465D01*
X160272000Y-85779290D01*
X160365262Y-85686028D01*
X160467586Y-85532889D01*
X160538068Y-85362729D01*
X160574000Y-85182089D01*
X160574000Y-84997911D01*
X160541396Y-84834000D01*
X162753199Y-84834000D01*
X163520200Y-85601002D01*
G37*
%TD.AperFunction*%
D21*
X170945928Y-88080000D02*
X170958188Y-88204482D01*
X170976546Y-88265000D01*
X170958188Y-88325518D01*
X170945928Y-88450000D01*
X170945928Y-89350000D01*
X170958188Y-89474482D01*
X170976546Y-89535000D01*
X170958188Y-89595518D01*
X170945928Y-89720000D01*
X170945928Y-90620000D01*
X170958188Y-90744482D01*
X170976546Y-90805000D01*
X170958188Y-90865518D01*
X170945928Y-90990000D01*
X170945928Y-91890000D01*
X170958188Y-92014482D01*
X170994498Y-92134180D01*
X171053463Y-92244494D01*
X171132815Y-92341185D01*
X171229506Y-92420537D01*
X171339820Y-92479502D01*
X171459518Y-92515812D01*
X171584000Y-92528072D01*
X173584000Y-92528072D01*
X173584000Y-93439721D01*
X173569278Y-93589869D01*
X173527215Y-93729187D01*
X169253815Y-103313880D01*
X169247750Y-103323819D01*
X168536550Y-104797019D01*
X168526360Y-104827456D01*
X168523920Y-104852232D01*
X168523920Y-109617441D01*
X164654707Y-109702309D01*
X163898999Y-109542448D01*
X163898999Y-109034422D01*
X165575531Y-107357891D01*
X165616922Y-107323922D01*
X165650891Y-107282531D01*
X165650895Y-107282527D01*
X165752508Y-107158711D01*
X165853258Y-106970221D01*
X165853259Y-106970220D01*
X165915300Y-106765697D01*
X165931000Y-106606294D01*
X165931000Y-106606287D01*
X165936248Y-106553001D01*
X165931000Y-106499715D01*
X165931000Y-103253484D01*
X166014061Y-103270006D01*
X166217939Y-103270006D01*
X166417898Y-103230232D01*
X166606256Y-103152211D01*
X166775774Y-103038943D01*
X166919937Y-102894780D01*
X167033205Y-102725262D01*
X167111226Y-102536904D01*
X167151000Y-102336945D01*
X167151000Y-102274808D01*
X167584008Y-101841801D01*
X167613001Y-101818007D01*
X167636795Y-101789014D01*
X167636799Y-101789010D01*
X167707973Y-101702283D01*
X167707974Y-101702282D01*
X167778546Y-101570253D01*
X167822003Y-101426992D01*
X167833000Y-101315339D01*
X167833000Y-101315330D01*
X167836676Y-101278007D01*
X167833000Y-101240684D01*
X167833000Y-100219468D01*
X167849185Y-100206185D01*
X167928537Y-100109494D01*
X167987502Y-99999180D01*
X168023812Y-99879482D01*
X168036072Y-99755000D01*
X168259928Y-99755000D01*
X168272188Y-99879482D01*
X168308498Y-99999180D01*
X168367463Y-100109494D01*
X168446815Y-100206185D01*
X168543506Y-100285537D01*
X168653820Y-100344502D01*
X168773518Y-100380812D01*
X168898000Y-100393072D01*
X168937250Y-100390000D01*
X169096000Y-100231250D01*
X169096000Y-99357000D01*
X169350000Y-99357000D01*
X169350000Y-100231250D01*
X169508750Y-100390000D01*
X169548000Y-100393072D01*
X169672482Y-100380812D01*
X169792180Y-100344502D01*
X169902494Y-100285537D01*
X169999185Y-100206185D01*
X170078537Y-100109494D01*
X170137502Y-99999180D01*
X170173812Y-99879482D01*
X170186072Y-99755000D01*
X170183000Y-99515750D01*
X170024250Y-99357000D01*
X169350000Y-99357000D01*
X169096000Y-99357000D01*
X168421750Y-99357000D01*
X168263000Y-99515750D01*
X168259928Y-99755000D01*
X168036072Y-99755000D01*
X168036072Y-98705000D01*
X168259928Y-98705000D01*
X168263000Y-98944250D01*
X168421750Y-99103000D01*
X169096000Y-99103000D01*
X169096000Y-98228750D01*
X169350000Y-98228750D01*
X169350000Y-99103000D01*
X170024250Y-99103000D01*
X170183000Y-98944250D01*
X170186072Y-98705000D01*
X170173812Y-98580518D01*
X170137502Y-98460820D01*
X170078537Y-98350506D01*
X169999185Y-98253815D01*
X169902494Y-98174463D01*
X169792180Y-98115498D01*
X169672482Y-98079188D01*
X169548000Y-98066928D01*
X169508750Y-98070000D01*
X169350000Y-98228750D01*
X169096000Y-98228750D01*
X168937250Y-98070000D01*
X168898000Y-98066928D01*
X168773518Y-98079188D01*
X168653820Y-98115498D01*
X168543506Y-98174463D01*
X168446815Y-98253815D01*
X168367463Y-98350506D01*
X168308498Y-98460820D01*
X168272188Y-98580518D01*
X168259928Y-98705000D01*
X168036072Y-98705000D01*
X168023812Y-98580518D01*
X167987502Y-98460820D01*
X167928537Y-98350506D01*
X167849185Y-98253815D01*
X167833000Y-98240532D01*
X167833000Y-96069468D01*
X167849185Y-96056185D01*
X167928537Y-95959494D01*
X167987502Y-95849180D01*
X168023812Y-95729482D01*
X168036072Y-95605000D01*
X168259928Y-95605000D01*
X168272188Y-95729482D01*
X168308498Y-95849180D01*
X168367463Y-95959494D01*
X168446815Y-96056185D01*
X168543506Y-96135537D01*
X168653820Y-96194502D01*
X168773518Y-96230812D01*
X168898000Y-96243072D01*
X168937250Y-96240000D01*
X169096000Y-96081250D01*
X169096000Y-95207000D01*
X169350000Y-95207000D01*
X169350000Y-96081250D01*
X169508750Y-96240000D01*
X169548000Y-96243072D01*
X169672482Y-96230812D01*
X169792180Y-96194502D01*
X169902494Y-96135537D01*
X169999185Y-96056185D01*
X170078537Y-95959494D01*
X170137502Y-95849180D01*
X170173812Y-95729482D01*
X170186072Y-95605000D01*
X170183000Y-95365750D01*
X170024250Y-95207000D01*
X169350000Y-95207000D01*
X169096000Y-95207000D01*
X168421750Y-95207000D01*
X168263000Y-95365750D01*
X168259928Y-95605000D01*
X168036072Y-95605000D01*
X168036072Y-94555000D01*
X168259928Y-94555000D01*
X168263000Y-94794250D01*
X168421750Y-94953000D01*
X169096000Y-94953000D01*
X169096000Y-94078750D01*
X169350000Y-94078750D01*
X169350000Y-94953000D01*
X170024250Y-94953000D01*
X170183000Y-94794250D01*
X170186072Y-94555000D01*
X170173812Y-94430518D01*
X170137502Y-94310820D01*
X170078537Y-94200506D01*
X169999185Y-94103815D01*
X169902494Y-94024463D01*
X169792180Y-93965498D01*
X169672482Y-93929188D01*
X169548000Y-93916928D01*
X169508750Y-93920000D01*
X169350000Y-94078750D01*
X169096000Y-94078750D01*
X168937250Y-93920000D01*
X168898000Y-93916928D01*
X168773518Y-93929188D01*
X168653820Y-93965498D01*
X168543506Y-94024463D01*
X168446815Y-94103815D01*
X168367463Y-94200506D01*
X168308498Y-94310820D01*
X168272188Y-94430518D01*
X168259928Y-94555000D01*
X168036072Y-94555000D01*
X168023812Y-94430518D01*
X167987502Y-94310820D01*
X167928537Y-94200506D01*
X167849185Y-94103815D01*
X167752494Y-94024463D01*
X167642180Y-93965498D01*
X167522482Y-93929188D01*
X167398000Y-93916928D01*
X166748000Y-93916928D01*
X166623518Y-93929188D01*
X166503820Y-93965498D01*
X166393506Y-94024463D01*
X166296815Y-94103815D01*
X166217463Y-94200506D01*
X166158498Y-94310820D01*
X166122188Y-94430518D01*
X166109928Y-94555000D01*
X166109928Y-95605000D01*
X166122188Y-95729482D01*
X166158498Y-95849180D01*
X166217463Y-95959494D01*
X166296815Y-96056185D01*
X166313001Y-96069468D01*
X166313000Y-98240532D01*
X166296815Y-98253815D01*
X166217463Y-98350506D01*
X166158498Y-98460820D01*
X166122188Y-98580518D01*
X166109928Y-98705000D01*
X166109928Y-99755000D01*
X166122188Y-99879482D01*
X166158498Y-99999180D01*
X166217463Y-100109494D01*
X166296815Y-100206185D01*
X166313000Y-100219468D01*
X166313001Y-100963203D01*
X166076198Y-101200006D01*
X166014061Y-101200006D01*
X165931000Y-101216528D01*
X165931000Y-89857421D01*
X168343422Y-87445000D01*
X170945928Y-87445000D01*
X170945928Y-88080000D01*
%TA.AperFunction,Conductor*%
D22*
G36*
X170945928Y-88080000D02*
G01*
X170958188Y-88204482D01*
X170976546Y-88265000D01*
X170958188Y-88325518D01*
X170945928Y-88450000D01*
X170945928Y-89350000D01*
X170958188Y-89474482D01*
X170976546Y-89535000D01*
X170958188Y-89595518D01*
X170945928Y-89720000D01*
X170945928Y-90620000D01*
X170958188Y-90744482D01*
X170976546Y-90805000D01*
X170958188Y-90865518D01*
X170945928Y-90990000D01*
X170945928Y-91890000D01*
X170958188Y-92014482D01*
X170994498Y-92134180D01*
X171053463Y-92244494D01*
X171132815Y-92341185D01*
X171229506Y-92420537D01*
X171339820Y-92479502D01*
X171459518Y-92515812D01*
X171584000Y-92528072D01*
X173584000Y-92528072D01*
X173584000Y-93439721D01*
X173569278Y-93589869D01*
X173527215Y-93729187D01*
X169253815Y-103313880D01*
X169247750Y-103323819D01*
X168536550Y-104797019D01*
X168526360Y-104827456D01*
X168523920Y-104852232D01*
X168523920Y-109617441D01*
X164654707Y-109702309D01*
X163898999Y-109542448D01*
X163898999Y-109034422D01*
X165575531Y-107357891D01*
X165616922Y-107323922D01*
X165650891Y-107282531D01*
X165650895Y-107282527D01*
X165752508Y-107158711D01*
X165853258Y-106970221D01*
X165853259Y-106970220D01*
X165915300Y-106765697D01*
X165931000Y-106606294D01*
X165931000Y-106606287D01*
X165936248Y-106553001D01*
X165931000Y-106499715D01*
X165931000Y-103253484D01*
X166014061Y-103270006D01*
X166217939Y-103270006D01*
X166417898Y-103230232D01*
X166606256Y-103152211D01*
X166775774Y-103038943D01*
X166919937Y-102894780D01*
X167033205Y-102725262D01*
X167111226Y-102536904D01*
X167151000Y-102336945D01*
X167151000Y-102274808D01*
X167584008Y-101841801D01*
X167613001Y-101818007D01*
X167636795Y-101789014D01*
X167636799Y-101789010D01*
X167707973Y-101702283D01*
X167707974Y-101702282D01*
X167778546Y-101570253D01*
X167822003Y-101426992D01*
X167833000Y-101315339D01*
X167833000Y-101315330D01*
X167836676Y-101278007D01*
X167833000Y-101240684D01*
X167833000Y-100219468D01*
X167849185Y-100206185D01*
X167928537Y-100109494D01*
X167987502Y-99999180D01*
X168023812Y-99879482D01*
X168036072Y-99755000D01*
X168259928Y-99755000D01*
X168272188Y-99879482D01*
X168308498Y-99999180D01*
X168367463Y-100109494D01*
X168446815Y-100206185D01*
X168543506Y-100285537D01*
X168653820Y-100344502D01*
X168773518Y-100380812D01*
X168898000Y-100393072D01*
X168937250Y-100390000D01*
X169096000Y-100231250D01*
X169096000Y-99357000D01*
X169350000Y-99357000D01*
X169350000Y-100231250D01*
X169508750Y-100390000D01*
X169548000Y-100393072D01*
X169672482Y-100380812D01*
X169792180Y-100344502D01*
X169902494Y-100285537D01*
X169999185Y-100206185D01*
X170078537Y-100109494D01*
X170137502Y-99999180D01*
X170173812Y-99879482D01*
X170186072Y-99755000D01*
X170183000Y-99515750D01*
X170024250Y-99357000D01*
X169350000Y-99357000D01*
X169096000Y-99357000D01*
X168421750Y-99357000D01*
X168263000Y-99515750D01*
X168259928Y-99755000D01*
X168036072Y-99755000D01*
X168036072Y-98705000D01*
X168259928Y-98705000D01*
X168263000Y-98944250D01*
X168421750Y-99103000D01*
X169096000Y-99103000D01*
X169096000Y-98228750D01*
X169350000Y-98228750D01*
X169350000Y-99103000D01*
X170024250Y-99103000D01*
X170183000Y-98944250D01*
X170186072Y-98705000D01*
X170173812Y-98580518D01*
X170137502Y-98460820D01*
X170078537Y-98350506D01*
X169999185Y-98253815D01*
X169902494Y-98174463D01*
X169792180Y-98115498D01*
X169672482Y-98079188D01*
X169548000Y-98066928D01*
X169508750Y-98070000D01*
X169350000Y-98228750D01*
X169096000Y-98228750D01*
X168937250Y-98070000D01*
X168898000Y-98066928D01*
X168773518Y-98079188D01*
X168653820Y-98115498D01*
X168543506Y-98174463D01*
X168446815Y-98253815D01*
X168367463Y-98350506D01*
X168308498Y-98460820D01*
X168272188Y-98580518D01*
X168259928Y-98705000D01*
X168036072Y-98705000D01*
X168023812Y-98580518D01*
X167987502Y-98460820D01*
X167928537Y-98350506D01*
X167849185Y-98253815D01*
X167833000Y-98240532D01*
X167833000Y-96069468D01*
X167849185Y-96056185D01*
X167928537Y-95959494D01*
X167987502Y-95849180D01*
X168023812Y-95729482D01*
X168036072Y-95605000D01*
X168259928Y-95605000D01*
X168272188Y-95729482D01*
X168308498Y-95849180D01*
X168367463Y-95959494D01*
X168446815Y-96056185D01*
X168543506Y-96135537D01*
X168653820Y-96194502D01*
X168773518Y-96230812D01*
X168898000Y-96243072D01*
X168937250Y-96240000D01*
X169096000Y-96081250D01*
X169096000Y-95207000D01*
X169350000Y-95207000D01*
X169350000Y-96081250D01*
X169508750Y-96240000D01*
X169548000Y-96243072D01*
X169672482Y-96230812D01*
X169792180Y-96194502D01*
X169902494Y-96135537D01*
X169999185Y-96056185D01*
X170078537Y-95959494D01*
X170137502Y-95849180D01*
X170173812Y-95729482D01*
X170186072Y-95605000D01*
X170183000Y-95365750D01*
X170024250Y-95207000D01*
X169350000Y-95207000D01*
X169096000Y-95207000D01*
X168421750Y-95207000D01*
X168263000Y-95365750D01*
X168259928Y-95605000D01*
X168036072Y-95605000D01*
X168036072Y-94555000D01*
X168259928Y-94555000D01*
X168263000Y-94794250D01*
X168421750Y-94953000D01*
X169096000Y-94953000D01*
X169096000Y-94078750D01*
X169350000Y-94078750D01*
X169350000Y-94953000D01*
X170024250Y-94953000D01*
X170183000Y-94794250D01*
X170186072Y-94555000D01*
X170173812Y-94430518D01*
X170137502Y-94310820D01*
X170078537Y-94200506D01*
X169999185Y-94103815D01*
X169902494Y-94024463D01*
X169792180Y-93965498D01*
X169672482Y-93929188D01*
X169548000Y-93916928D01*
X169508750Y-93920000D01*
X169350000Y-94078750D01*
X169096000Y-94078750D01*
X168937250Y-93920000D01*
X168898000Y-93916928D01*
X168773518Y-93929188D01*
X168653820Y-93965498D01*
X168543506Y-94024463D01*
X168446815Y-94103815D01*
X168367463Y-94200506D01*
X168308498Y-94310820D01*
X168272188Y-94430518D01*
X168259928Y-94555000D01*
X168036072Y-94555000D01*
X168023812Y-94430518D01*
X167987502Y-94310820D01*
X167928537Y-94200506D01*
X167849185Y-94103815D01*
X167752494Y-94024463D01*
X167642180Y-93965498D01*
X167522482Y-93929188D01*
X167398000Y-93916928D01*
X166748000Y-93916928D01*
X166623518Y-93929188D01*
X166503820Y-93965498D01*
X166393506Y-94024463D01*
X166296815Y-94103815D01*
X166217463Y-94200506D01*
X166158498Y-94310820D01*
X166122188Y-94430518D01*
X166109928Y-94555000D01*
X166109928Y-95605000D01*
X166122188Y-95729482D01*
X166158498Y-95849180D01*
X166217463Y-95959494D01*
X166296815Y-96056185D01*
X166313001Y-96069468D01*
X166313000Y-98240532D01*
X166296815Y-98253815D01*
X166217463Y-98350506D01*
X166158498Y-98460820D01*
X166122188Y-98580518D01*
X166109928Y-98705000D01*
X166109928Y-99755000D01*
X166122188Y-99879482D01*
X166158498Y-99999180D01*
X166217463Y-100109494D01*
X166296815Y-100206185D01*
X166313000Y-100219468D01*
X166313001Y-100963203D01*
X166076198Y-101200006D01*
X166014061Y-101200006D01*
X165931000Y-101216528D01*
X165931000Y-89857421D01*
X168343422Y-87445000D01*
X170945928Y-87445000D01*
X170945928Y-88080000D01*
G37*
%TD.AperFunction*%
D21*
X155711000Y-86233000D02*
X155731000Y-86233000D01*
X155731000Y-86487000D01*
X155711000Y-86487000D01*
X155711000Y-86507000D01*
X155457000Y-86507000D01*
X155457000Y-86487000D01*
X155437000Y-86487000D01*
X155437000Y-86233000D01*
X155457000Y-86233000D01*
X155457000Y-86213000D01*
X155711000Y-86213000D01*
X155711000Y-86233000D01*
%TA.AperFunction,Conductor*%
D22*
G36*
X155711000Y-86233000D02*
G01*
X155731000Y-86233000D01*
X155731000Y-86487000D01*
X155711000Y-86487000D01*
X155711000Y-86507000D01*
X155457000Y-86507000D01*
X155457000Y-86487000D01*
X155437000Y-86487000D01*
X155437000Y-86233000D01*
X155457000Y-86233000D01*
X155457000Y-86213000D01*
X155711000Y-86213000D01*
X155711000Y-86233000D01*
G37*
%TD.AperFunction*%
D21*
X153035000Y-80658000D02*
X153055000Y-80658000D01*
X153055000Y-80912000D01*
X153035000Y-80912000D01*
X153035000Y-81711250D01*
X153193750Y-81870000D01*
X153383000Y-81873072D01*
X153507482Y-81860812D01*
X153627180Y-81824502D01*
X153737494Y-81765537D01*
X153834185Y-81686185D01*
X153913537Y-81589494D01*
X153945928Y-81528896D01*
X153945928Y-81730000D01*
X153958188Y-81854482D01*
X153976546Y-81915000D01*
X153958188Y-81975518D01*
X153945928Y-82100000D01*
X153945928Y-82503821D01*
X153854632Y-82412525D01*
X153611411Y-82250010D01*
X153341158Y-82138068D01*
X153054260Y-82081000D01*
X152761740Y-82081000D01*
X152474842Y-82138068D01*
X152204589Y-82250010D01*
X152044000Y-82357312D01*
X152044000Y-81737219D01*
X152078506Y-81765537D01*
X152188820Y-81824502D01*
X152308518Y-81860812D01*
X152433000Y-81873072D01*
X152622250Y-81870000D01*
X152781000Y-81711250D01*
X152781000Y-80912000D01*
X152761000Y-80912000D01*
X152761000Y-80658000D01*
X152781000Y-80658000D01*
X152781000Y-80638000D01*
X153035000Y-80638000D01*
X153035000Y-80658000D01*
%TA.AperFunction,Conductor*%
D22*
G36*
X153035000Y-80658000D02*
G01*
X153055000Y-80658000D01*
X153055000Y-80912000D01*
X153035000Y-80912000D01*
X153035000Y-81711250D01*
X153193750Y-81870000D01*
X153383000Y-81873072D01*
X153507482Y-81860812D01*
X153627180Y-81824502D01*
X153737494Y-81765537D01*
X153834185Y-81686185D01*
X153913537Y-81589494D01*
X153945928Y-81528896D01*
X153945928Y-81730000D01*
X153958188Y-81854482D01*
X153976546Y-81915000D01*
X153958188Y-81975518D01*
X153945928Y-82100000D01*
X153945928Y-82503821D01*
X153854632Y-82412525D01*
X153611411Y-82250010D01*
X153341158Y-82138068D01*
X153054260Y-82081000D01*
X152761740Y-82081000D01*
X152474842Y-82138068D01*
X152204589Y-82250010D01*
X152044000Y-82357312D01*
X152044000Y-81737219D01*
X152078506Y-81765537D01*
X152188820Y-81824502D01*
X152308518Y-81860812D01*
X152433000Y-81873072D01*
X152622250Y-81870000D01*
X152781000Y-81711250D01*
X152781000Y-80912000D01*
X152761000Y-80912000D01*
X152761000Y-80658000D01*
X152781000Y-80658000D01*
X152781000Y-80638000D01*
X153035000Y-80638000D01*
X153035000Y-80658000D01*
G37*
%TD.AperFunction*%
D21*
X173296533Y-60867885D02*
X173362457Y-60887789D01*
X173423255Y-60920115D01*
X173476619Y-60963639D01*
X173520512Y-61016696D01*
X173553266Y-61077271D01*
X173573628Y-61143053D01*
X173584001Y-61241740D01*
X173584001Y-67491928D01*
X173584000Y-67491928D01*
X172869750Y-67495000D01*
X172711000Y-67653750D01*
X172711000Y-68453000D01*
X172731000Y-68453000D01*
X172731000Y-68707000D01*
X172711000Y-68707000D01*
X172711000Y-68727000D01*
X172457000Y-68727000D01*
X172457000Y-68707000D01*
X171107750Y-68707000D01*
X170949000Y-68865750D01*
X170945928Y-69030000D01*
X170958188Y-69154482D01*
X170976546Y-69215000D01*
X170958188Y-69275518D01*
X170945928Y-69400000D01*
X170945928Y-70300000D01*
X170958188Y-70424482D01*
X170976546Y-70485000D01*
X170958188Y-70545518D01*
X170945928Y-70670000D01*
X170945928Y-71570000D01*
X170958188Y-71694482D01*
X170967230Y-71724288D01*
X170909724Y-71755026D01*
X170793999Y-71849999D01*
X170770201Y-71878997D01*
X169796002Y-72853196D01*
X169766999Y-72876999D01*
X169729045Y-72923247D01*
X169672026Y-72992724D01*
X169616716Y-73096201D01*
X169601454Y-73124754D01*
X169557997Y-73268015D01*
X169547000Y-73379668D01*
X169547000Y-73379678D01*
X169543324Y-73417000D01*
X169547000Y-73454323D01*
X169547001Y-74942698D01*
X166219562Y-78270137D01*
X166219000Y-78200750D01*
X166060250Y-78042000D01*
X165046000Y-78042000D01*
X165046000Y-79056250D01*
X165204750Y-79215000D01*
X165274138Y-79215562D01*
X162665981Y-81823719D01*
X160185770Y-81823719D01*
X160083124Y-81755133D01*
X159912964Y-81684651D01*
X159732324Y-81648719D01*
X159548146Y-81648719D01*
X159469045Y-81664453D01*
X159469045Y-78580000D01*
X159945928Y-78580000D01*
X159958188Y-78704482D01*
X159994498Y-78824180D01*
X160053463Y-78934494D01*
X160132815Y-79031185D01*
X160229506Y-79110537D01*
X160339820Y-79169502D01*
X160459518Y-79205812D01*
X160584000Y-79218072D01*
X160963250Y-79215000D01*
X161122000Y-79056250D01*
X161122000Y-78042000D01*
X161376000Y-78042000D01*
X161376000Y-79056250D01*
X161534750Y-79215000D01*
X161914000Y-79218072D01*
X162038482Y-79205812D01*
X162158180Y-79169502D01*
X162166500Y-79165055D01*
X162174820Y-79169502D01*
X162294518Y-79205812D01*
X162419000Y-79218072D01*
X162798250Y-79215000D01*
X162957000Y-79056250D01*
X162957000Y-78042000D01*
X163211000Y-78042000D01*
X163211000Y-79056250D01*
X163369750Y-79215000D01*
X163749000Y-79218072D01*
X163873482Y-79205812D01*
X163993180Y-79169502D01*
X164001500Y-79165055D01*
X164009820Y-79169502D01*
X164129518Y-79205812D01*
X164254000Y-79218072D01*
X164633250Y-79215000D01*
X164792000Y-79056250D01*
X164792000Y-78042000D01*
X163211000Y-78042000D01*
X162957000Y-78042000D01*
X161376000Y-78042000D01*
X161122000Y-78042000D01*
X160107750Y-78042000D01*
X159949000Y-78200750D01*
X159945928Y-78580000D01*
X159469045Y-78580000D01*
X159469045Y-76745000D01*
X159945928Y-76745000D01*
X159958188Y-76869482D01*
X159994498Y-76989180D01*
X159998945Y-76997500D01*
X159994498Y-77005820D01*
X159958188Y-77125518D01*
X159945928Y-77250000D01*
X159949000Y-77629250D01*
X160107750Y-77788000D01*
X161122000Y-77788000D01*
X161122000Y-76207000D01*
X161376000Y-76207000D01*
X161376000Y-77788000D01*
X162957000Y-77788000D01*
X162957000Y-76207000D01*
X163211000Y-76207000D01*
X163211000Y-77788000D01*
X164792000Y-77788000D01*
X164792000Y-76207000D01*
X165046000Y-76207000D01*
X165046000Y-77788000D01*
X166060250Y-77788000D01*
X166219000Y-77629250D01*
X166222072Y-77250000D01*
X166209812Y-77125518D01*
X166173502Y-77005820D01*
X166169055Y-76997500D01*
X166173502Y-76989180D01*
X166209812Y-76869482D01*
X166222072Y-76745000D01*
X166219000Y-76365750D01*
X166060250Y-76207000D01*
X165046000Y-76207000D01*
X164792000Y-76207000D01*
X163211000Y-76207000D01*
X162957000Y-76207000D01*
X161376000Y-76207000D01*
X161122000Y-76207000D01*
X160107750Y-76207000D01*
X159949000Y-76365750D01*
X159945928Y-76745000D01*
X159469045Y-76745000D01*
X159469045Y-74910000D01*
X159945928Y-74910000D01*
X159958188Y-75034482D01*
X159994498Y-75154180D01*
X159998945Y-75162500D01*
X159994498Y-75170820D01*
X159958188Y-75290518D01*
X159945928Y-75415000D01*
X159949000Y-75794250D01*
X160107750Y-75953000D01*
X161122000Y-75953000D01*
X161122000Y-74372000D01*
X161376000Y-74372000D01*
X161376000Y-75953000D01*
X162957000Y-75953000D01*
X162957000Y-74372000D01*
X163211000Y-74372000D01*
X163211000Y-75953000D01*
X164792000Y-75953000D01*
X164792000Y-74372000D01*
X165046000Y-74372000D01*
X165046000Y-75953000D01*
X166060250Y-75953000D01*
X166219000Y-75794250D01*
X166222072Y-75415000D01*
X166209812Y-75290518D01*
X166173502Y-75170820D01*
X166169055Y-75162500D01*
X166173502Y-75154180D01*
X166209812Y-75034482D01*
X166222072Y-74910000D01*
X166219000Y-74530750D01*
X166060250Y-74372000D01*
X165046000Y-74372000D01*
X164792000Y-74372000D01*
X163211000Y-74372000D01*
X162957000Y-74372000D01*
X161376000Y-74372000D01*
X161122000Y-74372000D01*
X160107750Y-74372000D01*
X159949000Y-74530750D01*
X159945928Y-74910000D01*
X159469045Y-74910000D01*
X159469045Y-73580000D01*
X159945928Y-73580000D01*
X159949000Y-73959250D01*
X160107750Y-74118000D01*
X161122000Y-74118000D01*
X161122000Y-73103750D01*
X161376000Y-73103750D01*
X161376000Y-74118000D01*
X162957000Y-74118000D01*
X162957000Y-73103750D01*
X163211000Y-73103750D01*
X163211000Y-74118000D01*
X164792000Y-74118000D01*
X164792000Y-73103750D01*
X165046000Y-73103750D01*
X165046000Y-74118000D01*
X166060250Y-74118000D01*
X166219000Y-73959250D01*
X166222072Y-73580000D01*
X166209812Y-73455518D01*
X166173502Y-73335820D01*
X166114537Y-73225506D01*
X166035185Y-73128815D01*
X165938494Y-73049463D01*
X165828180Y-72990498D01*
X165708482Y-72954188D01*
X165584000Y-72941928D01*
X165204750Y-72945000D01*
X165046000Y-73103750D01*
X164792000Y-73103750D01*
X164633250Y-72945000D01*
X164254000Y-72941928D01*
X164129518Y-72954188D01*
X164009820Y-72990498D01*
X164001500Y-72994945D01*
X163993180Y-72990498D01*
X163873482Y-72954188D01*
X163749000Y-72941928D01*
X163369750Y-72945000D01*
X163211000Y-73103750D01*
X162957000Y-73103750D01*
X162798250Y-72945000D01*
X162419000Y-72941928D01*
X162294518Y-72954188D01*
X162174820Y-72990498D01*
X162166500Y-72994945D01*
X162158180Y-72990498D01*
X162038482Y-72954188D01*
X161914000Y-72941928D01*
X161534750Y-72945000D01*
X161376000Y-73103750D01*
X161122000Y-73103750D01*
X160963250Y-72945000D01*
X160584000Y-72941928D01*
X160459518Y-72954188D01*
X160339820Y-72990498D01*
X160229506Y-73049463D01*
X160132815Y-73128815D01*
X160053463Y-73225506D01*
X159994498Y-73335820D01*
X159958188Y-73455518D01*
X159945928Y-73580000D01*
X159469045Y-73580000D01*
X159469045Y-68644286D01*
X159472721Y-68606963D01*
X159469045Y-68569640D01*
X159469045Y-68569631D01*
X159458048Y-68457978D01*
X159414591Y-68314717D01*
X159344019Y-68182688D01*
X159300780Y-68130000D01*
X170945928Y-68130000D01*
X170949000Y-68294250D01*
X171107750Y-68453000D01*
X172457000Y-68453000D01*
X172457000Y-67653750D01*
X172298250Y-67495000D01*
X171584000Y-67491928D01*
X171459518Y-67504188D01*
X171339820Y-67540498D01*
X171229506Y-67599463D01*
X171132815Y-67678815D01*
X171053463Y-67775506D01*
X170994498Y-67885820D01*
X170958188Y-68005518D01*
X170945928Y-68130000D01*
X159300780Y-68130000D01*
X159249046Y-68066963D01*
X159220048Y-68043165D01*
X154673885Y-63497003D01*
X154650082Y-63467999D01*
X154534357Y-63373026D01*
X154402328Y-63302454D01*
X154259067Y-63258997D01*
X154188909Y-63252087D01*
X154061475Y-63061368D01*
X153854632Y-62854525D01*
X153611411Y-62692010D01*
X153341158Y-62580068D01*
X153054260Y-62523000D01*
X152761740Y-62523000D01*
X152474842Y-62580068D01*
X152204589Y-62692010D01*
X152044000Y-62799312D01*
X152044000Y-61246281D01*
X152053885Y-61145467D01*
X152073789Y-61079543D01*
X152106115Y-61018745D01*
X152149639Y-60965381D01*
X152202696Y-60921488D01*
X152263271Y-60888734D01*
X152329053Y-60868372D01*
X152427730Y-60858000D01*
X173195719Y-60858000D01*
X173296533Y-60867885D01*
%TA.AperFunction,Conductor*%
D22*
G36*
X173296533Y-60867885D02*
G01*
X173362457Y-60887789D01*
X173423255Y-60920115D01*
X173476619Y-60963639D01*
X173520512Y-61016696D01*
X173553266Y-61077271D01*
X173573628Y-61143053D01*
X173584001Y-61241740D01*
X173584001Y-67491928D01*
X173584000Y-67491928D01*
X172869750Y-67495000D01*
X172711000Y-67653750D01*
X172711000Y-68453000D01*
X172731000Y-68453000D01*
X172731000Y-68707000D01*
X172711000Y-68707000D01*
X172711000Y-68727000D01*
X172457000Y-68727000D01*
X172457000Y-68707000D01*
X171107750Y-68707000D01*
X170949000Y-68865750D01*
X170945928Y-69030000D01*
X170958188Y-69154482D01*
X170976546Y-69215000D01*
X170958188Y-69275518D01*
X170945928Y-69400000D01*
X170945928Y-70300000D01*
X170958188Y-70424482D01*
X170976546Y-70485000D01*
X170958188Y-70545518D01*
X170945928Y-70670000D01*
X170945928Y-71570000D01*
X170958188Y-71694482D01*
X170967230Y-71724288D01*
X170909724Y-71755026D01*
X170793999Y-71849999D01*
X170770201Y-71878997D01*
X169796002Y-72853196D01*
X169766999Y-72876999D01*
X169729045Y-72923247D01*
X169672026Y-72992724D01*
X169616716Y-73096201D01*
X169601454Y-73124754D01*
X169557997Y-73268015D01*
X169547000Y-73379668D01*
X169547000Y-73379678D01*
X169543324Y-73417000D01*
X169547000Y-73454323D01*
X169547001Y-74942698D01*
X166219562Y-78270137D01*
X166219000Y-78200750D01*
X166060250Y-78042000D01*
X165046000Y-78042000D01*
X165046000Y-79056250D01*
X165204750Y-79215000D01*
X165274138Y-79215562D01*
X162665981Y-81823719D01*
X160185770Y-81823719D01*
X160083124Y-81755133D01*
X159912964Y-81684651D01*
X159732324Y-81648719D01*
X159548146Y-81648719D01*
X159469045Y-81664453D01*
X159469045Y-78580000D01*
X159945928Y-78580000D01*
X159958188Y-78704482D01*
X159994498Y-78824180D01*
X160053463Y-78934494D01*
X160132815Y-79031185D01*
X160229506Y-79110537D01*
X160339820Y-79169502D01*
X160459518Y-79205812D01*
X160584000Y-79218072D01*
X160963250Y-79215000D01*
X161122000Y-79056250D01*
X161122000Y-78042000D01*
X161376000Y-78042000D01*
X161376000Y-79056250D01*
X161534750Y-79215000D01*
X161914000Y-79218072D01*
X162038482Y-79205812D01*
X162158180Y-79169502D01*
X162166500Y-79165055D01*
X162174820Y-79169502D01*
X162294518Y-79205812D01*
X162419000Y-79218072D01*
X162798250Y-79215000D01*
X162957000Y-79056250D01*
X162957000Y-78042000D01*
X163211000Y-78042000D01*
X163211000Y-79056250D01*
X163369750Y-79215000D01*
X163749000Y-79218072D01*
X163873482Y-79205812D01*
X163993180Y-79169502D01*
X164001500Y-79165055D01*
X164009820Y-79169502D01*
X164129518Y-79205812D01*
X164254000Y-79218072D01*
X164633250Y-79215000D01*
X164792000Y-79056250D01*
X164792000Y-78042000D01*
X163211000Y-78042000D01*
X162957000Y-78042000D01*
X161376000Y-78042000D01*
X161122000Y-78042000D01*
X160107750Y-78042000D01*
X159949000Y-78200750D01*
X159945928Y-78580000D01*
X159469045Y-78580000D01*
X159469045Y-76745000D01*
X159945928Y-76745000D01*
X159958188Y-76869482D01*
X159994498Y-76989180D01*
X159998945Y-76997500D01*
X159994498Y-77005820D01*
X159958188Y-77125518D01*
X159945928Y-77250000D01*
X159949000Y-77629250D01*
X160107750Y-77788000D01*
X161122000Y-77788000D01*
X161122000Y-76207000D01*
X161376000Y-76207000D01*
X161376000Y-77788000D01*
X162957000Y-77788000D01*
X162957000Y-76207000D01*
X163211000Y-76207000D01*
X163211000Y-77788000D01*
X164792000Y-77788000D01*
X164792000Y-76207000D01*
X165046000Y-76207000D01*
X165046000Y-77788000D01*
X166060250Y-77788000D01*
X166219000Y-77629250D01*
X166222072Y-77250000D01*
X166209812Y-77125518D01*
X166173502Y-77005820D01*
X166169055Y-76997500D01*
X166173502Y-76989180D01*
X166209812Y-76869482D01*
X166222072Y-76745000D01*
X166219000Y-76365750D01*
X166060250Y-76207000D01*
X165046000Y-76207000D01*
X164792000Y-76207000D01*
X163211000Y-76207000D01*
X162957000Y-76207000D01*
X161376000Y-76207000D01*
X161122000Y-76207000D01*
X160107750Y-76207000D01*
X159949000Y-76365750D01*
X159945928Y-76745000D01*
X159469045Y-76745000D01*
X159469045Y-74910000D01*
X159945928Y-74910000D01*
X159958188Y-75034482D01*
X159994498Y-75154180D01*
X159998945Y-75162500D01*
X159994498Y-75170820D01*
X159958188Y-75290518D01*
X159945928Y-75415000D01*
X159949000Y-75794250D01*
X160107750Y-75953000D01*
X161122000Y-75953000D01*
X161122000Y-74372000D01*
X161376000Y-74372000D01*
X161376000Y-75953000D01*
X162957000Y-75953000D01*
X162957000Y-74372000D01*
X163211000Y-74372000D01*
X163211000Y-75953000D01*
X164792000Y-75953000D01*
X164792000Y-74372000D01*
X165046000Y-74372000D01*
X165046000Y-75953000D01*
X166060250Y-75953000D01*
X166219000Y-75794250D01*
X166222072Y-75415000D01*
X166209812Y-75290518D01*
X166173502Y-75170820D01*
X166169055Y-75162500D01*
X166173502Y-75154180D01*
X166209812Y-75034482D01*
X166222072Y-74910000D01*
X166219000Y-74530750D01*
X166060250Y-74372000D01*
X165046000Y-74372000D01*
X164792000Y-74372000D01*
X163211000Y-74372000D01*
X162957000Y-74372000D01*
X161376000Y-74372000D01*
X161122000Y-74372000D01*
X160107750Y-74372000D01*
X159949000Y-74530750D01*
X159945928Y-74910000D01*
X159469045Y-74910000D01*
X159469045Y-73580000D01*
X159945928Y-73580000D01*
X159949000Y-73959250D01*
X160107750Y-74118000D01*
X161122000Y-74118000D01*
X161122000Y-73103750D01*
X161376000Y-73103750D01*
X161376000Y-74118000D01*
X162957000Y-74118000D01*
X162957000Y-73103750D01*
X163211000Y-73103750D01*
X163211000Y-74118000D01*
X164792000Y-74118000D01*
X164792000Y-73103750D01*
X165046000Y-73103750D01*
X165046000Y-74118000D01*
X166060250Y-74118000D01*
X166219000Y-73959250D01*
X166222072Y-73580000D01*
X166209812Y-73455518D01*
X166173502Y-73335820D01*
X166114537Y-73225506D01*
X166035185Y-73128815D01*
X165938494Y-73049463D01*
X165828180Y-72990498D01*
X165708482Y-72954188D01*
X165584000Y-72941928D01*
X165204750Y-72945000D01*
X165046000Y-73103750D01*
X164792000Y-73103750D01*
X164633250Y-72945000D01*
X164254000Y-72941928D01*
X164129518Y-72954188D01*
X164009820Y-72990498D01*
X164001500Y-72994945D01*
X163993180Y-72990498D01*
X163873482Y-72954188D01*
X163749000Y-72941928D01*
X163369750Y-72945000D01*
X163211000Y-73103750D01*
X162957000Y-73103750D01*
X162798250Y-72945000D01*
X162419000Y-72941928D01*
X162294518Y-72954188D01*
X162174820Y-72990498D01*
X162166500Y-72994945D01*
X162158180Y-72990498D01*
X162038482Y-72954188D01*
X161914000Y-72941928D01*
X161534750Y-72945000D01*
X161376000Y-73103750D01*
X161122000Y-73103750D01*
X160963250Y-72945000D01*
X160584000Y-72941928D01*
X160459518Y-72954188D01*
X160339820Y-72990498D01*
X160229506Y-73049463D01*
X160132815Y-73128815D01*
X160053463Y-73225506D01*
X159994498Y-73335820D01*
X159958188Y-73455518D01*
X159945928Y-73580000D01*
X159469045Y-73580000D01*
X159469045Y-68644286D01*
X159472721Y-68606963D01*
X159469045Y-68569640D01*
X159469045Y-68569631D01*
X159458048Y-68457978D01*
X159414591Y-68314717D01*
X159344019Y-68182688D01*
X159300780Y-68130000D01*
X170945928Y-68130000D01*
X170949000Y-68294250D01*
X171107750Y-68453000D01*
X172457000Y-68453000D01*
X172457000Y-67653750D01*
X172298250Y-67495000D01*
X171584000Y-67491928D01*
X171459518Y-67504188D01*
X171339820Y-67540498D01*
X171229506Y-67599463D01*
X171132815Y-67678815D01*
X171053463Y-67775506D01*
X170994498Y-67885820D01*
X170958188Y-68005518D01*
X170945928Y-68130000D01*
X159300780Y-68130000D01*
X159249046Y-68066963D01*
X159220048Y-68043165D01*
X154673885Y-63497003D01*
X154650082Y-63467999D01*
X154534357Y-63373026D01*
X154402328Y-63302454D01*
X154259067Y-63258997D01*
X154188909Y-63252087D01*
X154061475Y-63061368D01*
X153854632Y-62854525D01*
X153611411Y-62692010D01*
X153341158Y-62580068D01*
X153054260Y-62523000D01*
X152761740Y-62523000D01*
X152474842Y-62580068D01*
X152204589Y-62692010D01*
X152044000Y-62799312D01*
X152044000Y-61246281D01*
X152053885Y-61145467D01*
X152073789Y-61079543D01*
X152106115Y-61018745D01*
X152149639Y-60965381D01*
X152202696Y-60921488D01*
X152263271Y-60888734D01*
X152329053Y-60868372D01*
X152427730Y-60858000D01*
X173195719Y-60858000D01*
X173296533Y-60867885D01*
G37*
%TD.AperFunction*%
D21*
X157499035Y-69534835D02*
X157499034Y-80870233D01*
X157397804Y-80769002D01*
X157374001Y-80739999D01*
X157258276Y-80645026D01*
X157200770Y-80614288D01*
X157209812Y-80584482D01*
X157222072Y-80460000D01*
X157222072Y-79560000D01*
X157209812Y-79435518D01*
X157191454Y-79375000D01*
X157209812Y-79314482D01*
X157222072Y-79190000D01*
X157222072Y-78290000D01*
X157209812Y-78165518D01*
X157191454Y-78105000D01*
X157209812Y-78044482D01*
X157222072Y-77920000D01*
X157222072Y-77020000D01*
X157209812Y-76895518D01*
X157191454Y-76835000D01*
X157209812Y-76774482D01*
X157222072Y-76650000D01*
X157222072Y-75750000D01*
X157209812Y-75625518D01*
X157191454Y-75565000D01*
X157209812Y-75504482D01*
X157222072Y-75380000D01*
X157222072Y-74480000D01*
X157209812Y-74355518D01*
X157191454Y-74295000D01*
X157209812Y-74234482D01*
X157222072Y-74110000D01*
X157222072Y-73210000D01*
X157209812Y-73085518D01*
X157191454Y-73025000D01*
X157209812Y-72964482D01*
X157222072Y-72840000D01*
X157222072Y-71940000D01*
X157209812Y-71815518D01*
X157191454Y-71755000D01*
X157209812Y-71694482D01*
X157222072Y-71570000D01*
X157222072Y-70670000D01*
X157209812Y-70545518D01*
X157191454Y-70485000D01*
X157209812Y-70424482D01*
X157222072Y-70300000D01*
X157222072Y-69400000D01*
X157209812Y-69275518D01*
X157196790Y-69232590D01*
X157499035Y-69534835D01*
%TA.AperFunction,Conductor*%
D22*
G36*
X157499035Y-69534835D02*
G01*
X157499034Y-80870233D01*
X157397804Y-80769002D01*
X157374001Y-80739999D01*
X157258276Y-80645026D01*
X157200770Y-80614288D01*
X157209812Y-80584482D01*
X157222072Y-80460000D01*
X157222072Y-79560000D01*
X157209812Y-79435518D01*
X157191454Y-79375000D01*
X157209812Y-79314482D01*
X157222072Y-79190000D01*
X157222072Y-78290000D01*
X157209812Y-78165518D01*
X157191454Y-78105000D01*
X157209812Y-78044482D01*
X157222072Y-77920000D01*
X157222072Y-77020000D01*
X157209812Y-76895518D01*
X157191454Y-76835000D01*
X157209812Y-76774482D01*
X157222072Y-76650000D01*
X157222072Y-75750000D01*
X157209812Y-75625518D01*
X157191454Y-75565000D01*
X157209812Y-75504482D01*
X157222072Y-75380000D01*
X157222072Y-74480000D01*
X157209812Y-74355518D01*
X157191454Y-74295000D01*
X157209812Y-74234482D01*
X157222072Y-74110000D01*
X157222072Y-73210000D01*
X157209812Y-73085518D01*
X157191454Y-73025000D01*
X157209812Y-72964482D01*
X157222072Y-72840000D01*
X157222072Y-71940000D01*
X157209812Y-71815518D01*
X157191454Y-71755000D01*
X157209812Y-71694482D01*
X157222072Y-71570000D01*
X157222072Y-70670000D01*
X157209812Y-70545518D01*
X157191454Y-70485000D01*
X157209812Y-70424482D01*
X157222072Y-70300000D01*
X157222072Y-69400000D01*
X157209812Y-69275518D01*
X157196790Y-69232590D01*
X157499035Y-69534835D01*
G37*
%TD.AperFunction*%
D21*
X152948010Y-74328000D02*
X152781000Y-74328000D01*
X152781000Y-74308000D01*
X152761000Y-74308000D01*
X152761000Y-74054000D01*
X152781000Y-74054000D01*
X152781000Y-74034000D01*
X152948010Y-74034000D01*
X152948010Y-74328000D01*
%TA.AperFunction,Conductor*%
D22*
G36*
X152948010Y-74328000D02*
G01*
X152781000Y-74328000D01*
X152781000Y-74308000D01*
X152761000Y-74308000D01*
X152761000Y-74054000D01*
X152781000Y-74054000D01*
X152781000Y-74034000D01*
X152948010Y-74034000D01*
X152948010Y-74328000D01*
G37*
%TD.AperFunction*%
D21*
X155459201Y-67495000D02*
X155456998Y-67495000D01*
X155456998Y-67653748D01*
X155298250Y-67495000D01*
X154584000Y-67491928D01*
X154459518Y-67504188D01*
X154339820Y-67540498D01*
X154229506Y-67599463D01*
X154132815Y-67678815D01*
X154053463Y-67775506D01*
X153994498Y-67885820D01*
X153958188Y-68005518D01*
X153945928Y-68130000D01*
X153949000Y-68294250D01*
X154107750Y-68453000D01*
X155457000Y-68453000D01*
X155457000Y-68433000D01*
X155711000Y-68433000D01*
X155711000Y-68453000D01*
X155731000Y-68453000D01*
X155731000Y-68707000D01*
X155711000Y-68707000D01*
X155711000Y-68727000D01*
X155457000Y-68727000D01*
X155457000Y-68707000D01*
X154107750Y-68707000D01*
X154013422Y-68801328D01*
X154008812Y-68754518D01*
X153972502Y-68634820D01*
X153913537Y-68524506D01*
X153834185Y-68427815D01*
X153737494Y-68348463D01*
X153627180Y-68289498D01*
X153507482Y-68253188D01*
X153383000Y-68240928D01*
X153193750Y-68244000D01*
X153035000Y-68402750D01*
X153035000Y-69202000D01*
X153055000Y-69202000D01*
X153055000Y-69456000D01*
X153035000Y-69456000D01*
X153035000Y-69476000D01*
X152781000Y-69476000D01*
X152781000Y-69456000D01*
X152761000Y-69456000D01*
X152761000Y-69202000D01*
X152781000Y-69202000D01*
X152781000Y-68402750D01*
X152622250Y-68244000D01*
X152433000Y-68240928D01*
X152308518Y-68253188D01*
X152188820Y-68289498D01*
X152078506Y-68348463D01*
X152044000Y-68376781D01*
X152044000Y-67756688D01*
X152204589Y-67863990D01*
X152474842Y-67975932D01*
X152761740Y-68033000D01*
X153054260Y-68033000D01*
X153341158Y-67975932D01*
X153611411Y-67863990D01*
X153854632Y-67701475D01*
X154061475Y-67494632D01*
X154186178Y-67308000D01*
X155272201Y-67308000D01*
X155459201Y-67495000D01*
%TA.AperFunction,Conductor*%
D22*
G36*
X155459201Y-67495000D02*
G01*
X155456998Y-67495000D01*
X155456998Y-67653748D01*
X155298250Y-67495000D01*
X154584000Y-67491928D01*
X154459518Y-67504188D01*
X154339820Y-67540498D01*
X154229506Y-67599463D01*
X154132815Y-67678815D01*
X154053463Y-67775506D01*
X153994498Y-67885820D01*
X153958188Y-68005518D01*
X153945928Y-68130000D01*
X153949000Y-68294250D01*
X154107750Y-68453000D01*
X155457000Y-68453000D01*
X155457000Y-68433000D01*
X155711000Y-68433000D01*
X155711000Y-68453000D01*
X155731000Y-68453000D01*
X155731000Y-68707000D01*
X155711000Y-68707000D01*
X155711000Y-68727000D01*
X155457000Y-68727000D01*
X155457000Y-68707000D01*
X154107750Y-68707000D01*
X154013422Y-68801328D01*
X154008812Y-68754518D01*
X153972502Y-68634820D01*
X153913537Y-68524506D01*
X153834185Y-68427815D01*
X153737494Y-68348463D01*
X153627180Y-68289498D01*
X153507482Y-68253188D01*
X153383000Y-68240928D01*
X153193750Y-68244000D01*
X153035000Y-68402750D01*
X153035000Y-69202000D01*
X153055000Y-69202000D01*
X153055000Y-69456000D01*
X153035000Y-69456000D01*
X153035000Y-69476000D01*
X152781000Y-69476000D01*
X152781000Y-69456000D01*
X152761000Y-69456000D01*
X152761000Y-69202000D01*
X152781000Y-69202000D01*
X152781000Y-68402750D01*
X152622250Y-68244000D01*
X152433000Y-68240928D01*
X152308518Y-68253188D01*
X152188820Y-68289498D01*
X152078506Y-68348463D01*
X152044000Y-68376781D01*
X152044000Y-67756688D01*
X152204589Y-67863990D01*
X152474842Y-67975932D01*
X152761740Y-68033000D01*
X153054260Y-68033000D01*
X153341158Y-67975932D01*
X153611411Y-67863990D01*
X153854632Y-67701475D01*
X154061475Y-67494632D01*
X154186178Y-67308000D01*
X155272201Y-67308000D01*
X155459201Y-67495000D01*
G37*
%TD.AperFunction*%
%TD*%
M02*
