%TF.GenerationSoftware,KiCad,Pcbnew,(5.1.9)-1*%
%TF.CreationDate,2021-03-30T21:26:33+02:00*%
%TF.ProjectId,plant,706c616e-742e-46b6-9963-61645f706362,rev?*%
%TF.SameCoordinates,Original*%
%TF.FileFunction,Legend,Top*%
%TF.FilePolarity,Positive*%
%FSLAX46Y46*%
G04 Gerber Fmt 4.6, Leading zero omitted, Abs format (unit mm)*
G04 Created by KiCad (PCBNEW (5.1.9)-1) date 2021-03-30 21:26:33*
%MOMM*%
%LPD*%
G01*
G04 APERTURE LIST*
%ADD10C,0.150000*%
%ADD11C,0.250000*%
%ADD12C,0.100000*%
%ADD13C,0.010000*%
%ADD14C,0.120000*%
%ADD15C,0.200000*%
G04 APERTURE END LIST*
D10*
X159360310Y-105862380D02*
X159360310Y-104862380D01*
X159931738Y-105862380D02*
X159503167Y-105290952D01*
X159931738Y-104862380D02*
X159360310Y-105433809D01*
X160360310Y-105338571D02*
X160693643Y-105338571D01*
X160836500Y-105862380D02*
X160360310Y-105862380D01*
X160360310Y-104862380D01*
X160836500Y-104862380D01*
X161265072Y-105338571D02*
X161598405Y-105338571D01*
X161741262Y-105862380D02*
X161265072Y-105862380D01*
X161265072Y-104862380D01*
X161741262Y-104862380D01*
X162169834Y-105862380D02*
X162169834Y-104862380D01*
X162550786Y-104862380D01*
X162646024Y-104910000D01*
X162693643Y-104957619D01*
X162741262Y-105052857D01*
X162741262Y-105195714D01*
X162693643Y-105290952D01*
X162646024Y-105338571D01*
X162550786Y-105386190D01*
X162169834Y-105386190D01*
X163931738Y-105862380D02*
X163931738Y-104862380D01*
X164169834Y-104862380D01*
X164312691Y-104910000D01*
X164407929Y-105005238D01*
X164455548Y-105100476D01*
X164503167Y-105290952D01*
X164503167Y-105433809D01*
X164455548Y-105624285D01*
X164407929Y-105719523D01*
X164312691Y-105814761D01*
X164169834Y-105862380D01*
X163931738Y-105862380D01*
X165503167Y-105862380D02*
X165169834Y-105386190D01*
X164931738Y-105862380D02*
X164931738Y-104862380D01*
X165312691Y-104862380D01*
X165407929Y-104910000D01*
X165455548Y-104957619D01*
X165503167Y-105052857D01*
X165503167Y-105195714D01*
X165455548Y-105290952D01*
X165407929Y-105338571D01*
X165312691Y-105386190D01*
X164931738Y-105386190D01*
X166122215Y-105386190D02*
X166122215Y-105862380D01*
X165788881Y-104862380D02*
X166122215Y-105386190D01*
X166455548Y-104862380D01*
D11*
X168656000Y-107442000D02*
X156972000Y-107442000D01*
D12*
G36*
X152908000Y-61976000D02*
G01*
X152400000Y-61214000D01*
X153416000Y-61214000D01*
X152908000Y-61976000D01*
G37*
X152908000Y-61976000D02*
X152400000Y-61214000D01*
X153416000Y-61214000D01*
X152908000Y-61976000D01*
D13*
%TO.C,G\u002A\u002A\u002A*%
G36*
X163366615Y-154649943D02*
G01*
X163412394Y-154685036D01*
X163435708Y-154719568D01*
X163454237Y-154773582D01*
X163448277Y-154821169D01*
X163416977Y-154867517D01*
X163410232Y-154874494D01*
X163376550Y-154903702D01*
X163344592Y-154916920D01*
X163302256Y-154919947D01*
X163257186Y-154916300D01*
X163224798Y-154901906D01*
X163200656Y-154880870D01*
X163167359Y-154831463D01*
X163159436Y-154777851D01*
X163176765Y-154723867D01*
X163207032Y-154684663D01*
X163258649Y-154648950D01*
X163313605Y-154637645D01*
X163366615Y-154649943D01*
G37*
X163366615Y-154649943D02*
X163412394Y-154685036D01*
X163435708Y-154719568D01*
X163454237Y-154773582D01*
X163448277Y-154821169D01*
X163416977Y-154867517D01*
X163410232Y-154874494D01*
X163376550Y-154903702D01*
X163344592Y-154916920D01*
X163302256Y-154919947D01*
X163257186Y-154916300D01*
X163224798Y-154901906D01*
X163200656Y-154880870D01*
X163167359Y-154831463D01*
X163159436Y-154777851D01*
X163176765Y-154723867D01*
X163207032Y-154684663D01*
X163258649Y-154648950D01*
X163313605Y-154637645D01*
X163366615Y-154649943D01*
G36*
X162403584Y-154631816D02*
G01*
X162449061Y-154660134D01*
X162467994Y-154677743D01*
X162499687Y-154713006D01*
X162515229Y-154743002D01*
X162519827Y-154778546D01*
X162519895Y-154785569D01*
X162513919Y-154843191D01*
X162493650Y-154883073D01*
X162455579Y-154911940D01*
X162453320Y-154913124D01*
X162391979Y-154932642D01*
X162331546Y-154930195D01*
X162279102Y-154906493D01*
X162264867Y-154894239D01*
X162232465Y-154844811D01*
X162221852Y-154788368D01*
X162231882Y-154731637D01*
X162261408Y-154681344D01*
X162307322Y-154645211D01*
X162358300Y-154627239D01*
X162403584Y-154631816D01*
G37*
X162403584Y-154631816D02*
X162449061Y-154660134D01*
X162467994Y-154677743D01*
X162499687Y-154713006D01*
X162515229Y-154743002D01*
X162519827Y-154778546D01*
X162519895Y-154785569D01*
X162513919Y-154843191D01*
X162493650Y-154883073D01*
X162455579Y-154911940D01*
X162453320Y-154913124D01*
X162391979Y-154932642D01*
X162331546Y-154930195D01*
X162279102Y-154906493D01*
X162264867Y-154894239D01*
X162232465Y-154844811D01*
X162221852Y-154788368D01*
X162231882Y-154731637D01*
X162261408Y-154681344D01*
X162307322Y-154645211D01*
X162358300Y-154627239D01*
X162403584Y-154631816D01*
G36*
X162877050Y-155723256D02*
G01*
X162908936Y-155728656D01*
X162931927Y-155740930D01*
X162951868Y-155759547D01*
X162976950Y-155793650D01*
X162986904Y-155833423D01*
X162987790Y-155857097D01*
X162984904Y-155896654D01*
X162972658Y-155926462D01*
X162945665Y-155958157D01*
X162937095Y-155966655D01*
X162902079Y-155997195D01*
X162871477Y-156011903D01*
X162833356Y-156016104D01*
X162826176Y-156016158D01*
X162786548Y-156013290D01*
X162756744Y-156001096D01*
X162725109Y-155974193D01*
X162716450Y-155965462D01*
X162685789Y-155930215D01*
X162671074Y-155899380D01*
X162666978Y-155861170D01*
X162666948Y-155855904D01*
X162672057Y-155808848D01*
X162690846Y-155773216D01*
X162702870Y-155759547D01*
X162725395Y-155739005D01*
X162748983Y-155727698D01*
X162782535Y-155722943D01*
X162827369Y-155722052D01*
X162877050Y-155723256D01*
G37*
X162877050Y-155723256D02*
X162908936Y-155728656D01*
X162931927Y-155740930D01*
X162951868Y-155759547D01*
X162976950Y-155793650D01*
X162986904Y-155833423D01*
X162987790Y-155857097D01*
X162984904Y-155896654D01*
X162972658Y-155926462D01*
X162945665Y-155958157D01*
X162937095Y-155966655D01*
X162902079Y-155997195D01*
X162871477Y-156011903D01*
X162833356Y-156016104D01*
X162826176Y-156016158D01*
X162786548Y-156013290D01*
X162756744Y-156001096D01*
X162725109Y-155974193D01*
X162716450Y-155965462D01*
X162685789Y-155930215D01*
X162671074Y-155899380D01*
X162666978Y-155861170D01*
X162666948Y-155855904D01*
X162672057Y-155808848D01*
X162690846Y-155773216D01*
X162702870Y-155759547D01*
X162725395Y-155739005D01*
X162748983Y-155727698D01*
X162782535Y-155722943D01*
X162827369Y-155722052D01*
X162877050Y-155723256D01*
G36*
X162938235Y-152154788D02*
G01*
X163047801Y-152160627D01*
X163143032Y-152169638D01*
X163169159Y-152173177D01*
X163434865Y-152225937D01*
X163691727Y-152303710D01*
X163938542Y-152405887D01*
X164174103Y-152531860D01*
X164397209Y-152681019D01*
X164606654Y-152852755D01*
X164712901Y-152953914D01*
X164892388Y-153152085D01*
X165048655Y-153363505D01*
X165181645Y-153588069D01*
X165291303Y-153825673D01*
X165377572Y-154076215D01*
X165428107Y-154278263D01*
X165447511Y-154393732D01*
X165461730Y-154527888D01*
X165470526Y-154673144D01*
X165473664Y-154821914D01*
X165470904Y-154966608D01*
X165462011Y-155099640D01*
X165455575Y-155156501D01*
X165407773Y-155420371D01*
X165335607Y-155674296D01*
X165239980Y-155917023D01*
X165121794Y-156147297D01*
X164981951Y-156363866D01*
X164821354Y-156565475D01*
X164640906Y-156750871D01*
X164441508Y-156918800D01*
X164224063Y-157068009D01*
X163989474Y-157197243D01*
X163985110Y-157199374D01*
X163744554Y-157304450D01*
X163505651Y-157383900D01*
X163265171Y-157438383D01*
X163019888Y-157468561D01*
X162766573Y-157475095D01*
X162658135Y-157471010D01*
X162405600Y-157443861D01*
X162156821Y-157391329D01*
X161913903Y-157314690D01*
X161678949Y-157215220D01*
X161454061Y-157094196D01*
X161241342Y-156952895D01*
X161042896Y-156792592D01*
X160860826Y-156614564D01*
X160697235Y-156420087D01*
X160554226Y-156210438D01*
X160538822Y-156184786D01*
X160420689Y-155960191D01*
X160321964Y-155718897D01*
X160243691Y-155463632D01*
X160211713Y-155327684D01*
X160200145Y-155271495D01*
X160191273Y-155222751D01*
X160184734Y-155176509D01*
X160180165Y-155127831D01*
X160177201Y-155071776D01*
X160175478Y-155003402D01*
X160174634Y-154917771D01*
X160174368Y-154834136D01*
X160292479Y-154834136D01*
X160308717Y-155088609D01*
X160350529Y-155343129D01*
X160418000Y-155596152D01*
X160473967Y-155754732D01*
X160489211Y-155794096D01*
X160889606Y-155393868D01*
X161290000Y-154993641D01*
X161290000Y-154819248D01*
X161136263Y-154665947D01*
X160982527Y-154512646D01*
X160982527Y-153596473D01*
X162420160Y-153596473D01*
X162673104Y-153850473D01*
X162954926Y-153850473D01*
X163074685Y-153730158D01*
X163194443Y-153609842D01*
X164739053Y-153609842D01*
X164738793Y-154081079D01*
X164738532Y-154552316D01*
X163997286Y-155318422D01*
X163957090Y-155302025D01*
X163916895Y-155285628D01*
X163913374Y-154825938D01*
X163909853Y-154366247D01*
X163874110Y-154328939D01*
X163843711Y-154303834D01*
X163808958Y-154293166D01*
X163777368Y-154291581D01*
X163709100Y-154281398D01*
X163656657Y-154253814D01*
X163620192Y-154213089D01*
X163599857Y-154163484D01*
X163596981Y-154124996D01*
X163729704Y-154124996D01*
X163743123Y-154151958D01*
X163768861Y-154168630D01*
X163799723Y-154170487D01*
X163828514Y-154153003D01*
X163829856Y-154151436D01*
X163840015Y-154122528D01*
X163834452Y-154089912D01*
X163816310Y-154065830D01*
X163806752Y-154061457D01*
X163767803Y-154061336D01*
X163739859Y-154085327D01*
X163735798Y-154092270D01*
X163729704Y-154124996D01*
X163596981Y-154124996D01*
X163595805Y-154109260D01*
X163608189Y-154054677D01*
X163637161Y-154003996D01*
X163682873Y-153961476D01*
X163745479Y-153931380D01*
X163764281Y-153926178D01*
X163810727Y-153927482D01*
X163861111Y-153948457D01*
X163907990Y-153984583D01*
X163943917Y-154031340D01*
X163946974Y-154037122D01*
X163964933Y-154079591D01*
X163975688Y-154118263D01*
X163977053Y-154131203D01*
X163987160Y-154163319D01*
X164018455Y-154204993D01*
X164043895Y-154231473D01*
X164110737Y-154297310D01*
X164111391Y-154611971D01*
X164112046Y-154926631D01*
X164325286Y-154707413D01*
X164538527Y-154488195D01*
X164538527Y-153797000D01*
X163274653Y-153797000D01*
X163154895Y-153917316D01*
X163035137Y-154037631D01*
X162592864Y-154037631D01*
X162473106Y-153917316D01*
X162353347Y-153797000D01*
X161169685Y-153797000D01*
X161169685Y-154432436D01*
X161323421Y-154585737D01*
X161477158Y-154739037D01*
X161477158Y-155073539D01*
X160577266Y-155973723D01*
X160594176Y-156014550D01*
X160602395Y-156034617D01*
X160610172Y-156050666D01*
X160619113Y-156061474D01*
X160630826Y-156065816D01*
X160646917Y-156062467D01*
X160668993Y-156050204D01*
X160698662Y-156027802D01*
X160737529Y-155994036D01*
X160787201Y-155947684D01*
X160849285Y-155887520D01*
X160925389Y-155812321D01*
X161017118Y-155720861D01*
X161126080Y-155611918D01*
X161137158Y-155600842D01*
X161624211Y-155113927D01*
X161624211Y-154310771D01*
X161696180Y-154239696D01*
X161734376Y-154200015D01*
X161756392Y-154170431D01*
X161766477Y-154143793D01*
X161768562Y-154120712D01*
X161904866Y-154120712D01*
X161907741Y-154151675D01*
X161913860Y-154162403D01*
X161938349Y-154171153D01*
X161970896Y-154167378D01*
X161997032Y-154152958D01*
X161998383Y-154151436D01*
X162010922Y-154120009D01*
X162003191Y-154089646D01*
X161981012Y-154067241D01*
X161950206Y-154059689D01*
X161926899Y-154066780D01*
X161911890Y-154087740D01*
X161904866Y-154120712D01*
X161768562Y-154120712D01*
X161768855Y-154117477D01*
X161780691Y-154049314D01*
X161810977Y-153995405D01*
X161854984Y-153956676D01*
X161907982Y-153934055D01*
X161965244Y-153928468D01*
X162022040Y-153940841D01*
X162073640Y-153972103D01*
X162115316Y-154023180D01*
X162127250Y-154047228D01*
X162142737Y-154113084D01*
X162134510Y-154174678D01*
X162105591Y-154227668D01*
X162059003Y-154267709D01*
X161997769Y-154290458D01*
X161955519Y-154294005D01*
X161919146Y-154297377D01*
X161889727Y-154312359D01*
X161857939Y-154342593D01*
X161812092Y-154391894D01*
X161811730Y-154793010D01*
X161811369Y-155194125D01*
X161277499Y-155727870D01*
X160743629Y-156261614D01*
X160815421Y-156362754D01*
X161360149Y-155818579D01*
X161904877Y-155274403D01*
X162158912Y-155528175D01*
X162412948Y-155781946D01*
X162412948Y-156089182D01*
X162536342Y-156213091D01*
X162659735Y-156337000D01*
X162968215Y-156337000D01*
X163105002Y-156199745D01*
X163241790Y-156062491D01*
X163241790Y-155795101D01*
X163382158Y-155655210D01*
X163433432Y-155602459D01*
X163475835Y-155555624D01*
X163506207Y-155518423D01*
X163521387Y-155494572D01*
X163522527Y-155490109D01*
X163514095Y-155465052D01*
X163492909Y-155432021D01*
X163482615Y-155419440D01*
X163443260Y-155357910D01*
X163434969Y-155317216D01*
X163568281Y-155317216D01*
X163569476Y-155321505D01*
X163587785Y-155342109D01*
X163617933Y-155348449D01*
X163649181Y-155340579D01*
X163669579Y-155321000D01*
X163676028Y-155285982D01*
X163661435Y-155256518D01*
X163630895Y-155241343D01*
X163622790Y-155240789D01*
X163590473Y-155252289D01*
X163570317Y-155280773D01*
X163568281Y-155317216D01*
X163434969Y-155317216D01*
X163430310Y-155294351D01*
X163443724Y-155230690D01*
X163483466Y-155168858D01*
X163487711Y-155164125D01*
X163518290Y-155134861D01*
X163548550Y-155119178D01*
X163590414Y-155111603D01*
X163605071Y-155110252D01*
X163649717Y-155108113D01*
X163679646Y-155113344D01*
X163706606Y-155129510D01*
X163728100Y-155147566D01*
X163771240Y-155190134D01*
X163795362Y-155228516D01*
X163804924Y-155271326D01*
X163805634Y-155297367D01*
X163793090Y-155359976D01*
X163760557Y-155414486D01*
X163734148Y-155438731D01*
X163717156Y-155461066D01*
X163710151Y-155500143D01*
X163709685Y-155519181D01*
X163709086Y-155544106D01*
X163705388Y-155564878D01*
X163695739Y-155585616D01*
X163677289Y-155610443D01*
X163647185Y-155643480D01*
X163602575Y-155688848D01*
X163569316Y-155722052D01*
X163428948Y-155861943D01*
X163428948Y-156142823D01*
X163238621Y-156333490D01*
X163048293Y-156524158D01*
X162579681Y-156524158D01*
X162402736Y-156346847D01*
X162225790Y-156169536D01*
X162225790Y-155862003D01*
X162065276Y-155701907D01*
X161904761Y-155541811D01*
X161420491Y-156026082D01*
X160936220Y-156510353D01*
X161009505Y-156585197D01*
X161185453Y-156746744D01*
X161380355Y-156892648D01*
X161590430Y-157020989D01*
X161811900Y-157129848D01*
X162040986Y-157217304D01*
X162273907Y-157281437D01*
X162439685Y-157311782D01*
X162493431Y-157319625D01*
X162540719Y-157326745D01*
X162571910Y-157331690D01*
X162573369Y-157331939D01*
X162596471Y-157333457D01*
X162641756Y-157334384D01*
X162704675Y-157334702D01*
X162780680Y-157334395D01*
X162865222Y-157333446D01*
X162887527Y-157333100D01*
X162989944Y-157330992D01*
X163071533Y-157328081D01*
X163138198Y-157323851D01*
X163195845Y-157317783D01*
X163250381Y-157309359D01*
X163307711Y-157298060D01*
X163322000Y-157294982D01*
X163502498Y-157249895D01*
X163669109Y-157195344D01*
X163834169Y-157127095D01*
X163896842Y-157097753D01*
X164124607Y-156973514D01*
X164338569Y-156827176D01*
X164536335Y-156660537D01*
X164695860Y-156497646D01*
X164861649Y-156293041D01*
X165003374Y-156077988D01*
X165120911Y-155853945D01*
X165214132Y-155622373D01*
X165282912Y-155384730D01*
X165327127Y-155142477D01*
X165346651Y-154897073D01*
X165341357Y-154649978D01*
X165311121Y-154402652D01*
X165255817Y-154156554D01*
X165175320Y-153913144D01*
X165069503Y-153673882D01*
X164956286Y-153469473D01*
X164813345Y-153259987D01*
X164650778Y-153068048D01*
X164469888Y-152894562D01*
X164271973Y-152740432D01*
X164058335Y-152606565D01*
X163830274Y-152493864D01*
X163589090Y-152403234D01*
X163336085Y-152335579D01*
X163322000Y-152332574D01*
X163200904Y-152312215D01*
X163062889Y-152297617D01*
X162916094Y-152289037D01*
X162768654Y-152286734D01*
X162628708Y-152290965D01*
X162504393Y-152301990D01*
X162477092Y-152305779D01*
X162213531Y-152358327D01*
X161962162Y-152434250D01*
X161723875Y-152532931D01*
X161499559Y-152653751D01*
X161290104Y-152796091D01*
X161096400Y-152959332D01*
X160919336Y-153142857D01*
X160759803Y-153346046D01*
X160618688Y-153568282D01*
X160591905Y-153616526D01*
X160481554Y-153847599D01*
X160396351Y-154086441D01*
X160336381Y-154331507D01*
X160301728Y-154581254D01*
X160292479Y-154834136D01*
X160174368Y-154834136D01*
X160174321Y-154819684D01*
X160175089Y-154673791D01*
X160177951Y-154554489D01*
X160182910Y-154461715D01*
X160189968Y-154395405D01*
X160191650Y-154385210D01*
X160250439Y-154120211D01*
X160329484Y-153872018D01*
X160429622Y-153639056D01*
X160551691Y-153419753D01*
X160696527Y-153212534D01*
X160864969Y-153015827D01*
X160984086Y-152896112D01*
X161186311Y-152721983D01*
X161404268Y-152568849D01*
X161636035Y-152437623D01*
X161879691Y-152329221D01*
X162133314Y-152244558D01*
X162394982Y-152184548D01*
X162519895Y-152165160D01*
X162605165Y-152157306D01*
X162708753Y-152153027D01*
X162822498Y-152152221D01*
X162938235Y-152154788D01*
G37*
X162938235Y-152154788D02*
X163047801Y-152160627D01*
X163143032Y-152169638D01*
X163169159Y-152173177D01*
X163434865Y-152225937D01*
X163691727Y-152303710D01*
X163938542Y-152405887D01*
X164174103Y-152531860D01*
X164397209Y-152681019D01*
X164606654Y-152852755D01*
X164712901Y-152953914D01*
X164892388Y-153152085D01*
X165048655Y-153363505D01*
X165181645Y-153588069D01*
X165291303Y-153825673D01*
X165377572Y-154076215D01*
X165428107Y-154278263D01*
X165447511Y-154393732D01*
X165461730Y-154527888D01*
X165470526Y-154673144D01*
X165473664Y-154821914D01*
X165470904Y-154966608D01*
X165462011Y-155099640D01*
X165455575Y-155156501D01*
X165407773Y-155420371D01*
X165335607Y-155674296D01*
X165239980Y-155917023D01*
X165121794Y-156147297D01*
X164981951Y-156363866D01*
X164821354Y-156565475D01*
X164640906Y-156750871D01*
X164441508Y-156918800D01*
X164224063Y-157068009D01*
X163989474Y-157197243D01*
X163985110Y-157199374D01*
X163744554Y-157304450D01*
X163505651Y-157383900D01*
X163265171Y-157438383D01*
X163019888Y-157468561D01*
X162766573Y-157475095D01*
X162658135Y-157471010D01*
X162405600Y-157443861D01*
X162156821Y-157391329D01*
X161913903Y-157314690D01*
X161678949Y-157215220D01*
X161454061Y-157094196D01*
X161241342Y-156952895D01*
X161042896Y-156792592D01*
X160860826Y-156614564D01*
X160697235Y-156420087D01*
X160554226Y-156210438D01*
X160538822Y-156184786D01*
X160420689Y-155960191D01*
X160321964Y-155718897D01*
X160243691Y-155463632D01*
X160211713Y-155327684D01*
X160200145Y-155271495D01*
X160191273Y-155222751D01*
X160184734Y-155176509D01*
X160180165Y-155127831D01*
X160177201Y-155071776D01*
X160175478Y-155003402D01*
X160174634Y-154917771D01*
X160174368Y-154834136D01*
X160292479Y-154834136D01*
X160308717Y-155088609D01*
X160350529Y-155343129D01*
X160418000Y-155596152D01*
X160473967Y-155754732D01*
X160489211Y-155794096D01*
X160889606Y-155393868D01*
X161290000Y-154993641D01*
X161290000Y-154819248D01*
X161136263Y-154665947D01*
X160982527Y-154512646D01*
X160982527Y-153596473D01*
X162420160Y-153596473D01*
X162673104Y-153850473D01*
X162954926Y-153850473D01*
X163074685Y-153730158D01*
X163194443Y-153609842D01*
X164739053Y-153609842D01*
X164738793Y-154081079D01*
X164738532Y-154552316D01*
X163997286Y-155318422D01*
X163957090Y-155302025D01*
X163916895Y-155285628D01*
X163913374Y-154825938D01*
X163909853Y-154366247D01*
X163874110Y-154328939D01*
X163843711Y-154303834D01*
X163808958Y-154293166D01*
X163777368Y-154291581D01*
X163709100Y-154281398D01*
X163656657Y-154253814D01*
X163620192Y-154213089D01*
X163599857Y-154163484D01*
X163596981Y-154124996D01*
X163729704Y-154124996D01*
X163743123Y-154151958D01*
X163768861Y-154168630D01*
X163799723Y-154170487D01*
X163828514Y-154153003D01*
X163829856Y-154151436D01*
X163840015Y-154122528D01*
X163834452Y-154089912D01*
X163816310Y-154065830D01*
X163806752Y-154061457D01*
X163767803Y-154061336D01*
X163739859Y-154085327D01*
X163735798Y-154092270D01*
X163729704Y-154124996D01*
X163596981Y-154124996D01*
X163595805Y-154109260D01*
X163608189Y-154054677D01*
X163637161Y-154003996D01*
X163682873Y-153961476D01*
X163745479Y-153931380D01*
X163764281Y-153926178D01*
X163810727Y-153927482D01*
X163861111Y-153948457D01*
X163907990Y-153984583D01*
X163943917Y-154031340D01*
X163946974Y-154037122D01*
X163964933Y-154079591D01*
X163975688Y-154118263D01*
X163977053Y-154131203D01*
X163987160Y-154163319D01*
X164018455Y-154204993D01*
X164043895Y-154231473D01*
X164110737Y-154297310D01*
X164111391Y-154611971D01*
X164112046Y-154926631D01*
X164325286Y-154707413D01*
X164538527Y-154488195D01*
X164538527Y-153797000D01*
X163274653Y-153797000D01*
X163154895Y-153917316D01*
X163035137Y-154037631D01*
X162592864Y-154037631D01*
X162473106Y-153917316D01*
X162353347Y-153797000D01*
X161169685Y-153797000D01*
X161169685Y-154432436D01*
X161323421Y-154585737D01*
X161477158Y-154739037D01*
X161477158Y-155073539D01*
X160577266Y-155973723D01*
X160594176Y-156014550D01*
X160602395Y-156034617D01*
X160610172Y-156050666D01*
X160619113Y-156061474D01*
X160630826Y-156065816D01*
X160646917Y-156062467D01*
X160668993Y-156050204D01*
X160698662Y-156027802D01*
X160737529Y-155994036D01*
X160787201Y-155947684D01*
X160849285Y-155887520D01*
X160925389Y-155812321D01*
X161017118Y-155720861D01*
X161126080Y-155611918D01*
X161137158Y-155600842D01*
X161624211Y-155113927D01*
X161624211Y-154310771D01*
X161696180Y-154239696D01*
X161734376Y-154200015D01*
X161756392Y-154170431D01*
X161766477Y-154143793D01*
X161768562Y-154120712D01*
X161904866Y-154120712D01*
X161907741Y-154151675D01*
X161913860Y-154162403D01*
X161938349Y-154171153D01*
X161970896Y-154167378D01*
X161997032Y-154152958D01*
X161998383Y-154151436D01*
X162010922Y-154120009D01*
X162003191Y-154089646D01*
X161981012Y-154067241D01*
X161950206Y-154059689D01*
X161926899Y-154066780D01*
X161911890Y-154087740D01*
X161904866Y-154120712D01*
X161768562Y-154120712D01*
X161768855Y-154117477D01*
X161780691Y-154049314D01*
X161810977Y-153995405D01*
X161854984Y-153956676D01*
X161907982Y-153934055D01*
X161965244Y-153928468D01*
X162022040Y-153940841D01*
X162073640Y-153972103D01*
X162115316Y-154023180D01*
X162127250Y-154047228D01*
X162142737Y-154113084D01*
X162134510Y-154174678D01*
X162105591Y-154227668D01*
X162059003Y-154267709D01*
X161997769Y-154290458D01*
X161955519Y-154294005D01*
X161919146Y-154297377D01*
X161889727Y-154312359D01*
X161857939Y-154342593D01*
X161812092Y-154391894D01*
X161811730Y-154793010D01*
X161811369Y-155194125D01*
X161277499Y-155727870D01*
X160743629Y-156261614D01*
X160815421Y-156362754D01*
X161360149Y-155818579D01*
X161904877Y-155274403D01*
X162158912Y-155528175D01*
X162412948Y-155781946D01*
X162412948Y-156089182D01*
X162536342Y-156213091D01*
X162659735Y-156337000D01*
X162968215Y-156337000D01*
X163105002Y-156199745D01*
X163241790Y-156062491D01*
X163241790Y-155795101D01*
X163382158Y-155655210D01*
X163433432Y-155602459D01*
X163475835Y-155555624D01*
X163506207Y-155518423D01*
X163521387Y-155494572D01*
X163522527Y-155490109D01*
X163514095Y-155465052D01*
X163492909Y-155432021D01*
X163482615Y-155419440D01*
X163443260Y-155357910D01*
X163434969Y-155317216D01*
X163568281Y-155317216D01*
X163569476Y-155321505D01*
X163587785Y-155342109D01*
X163617933Y-155348449D01*
X163649181Y-155340579D01*
X163669579Y-155321000D01*
X163676028Y-155285982D01*
X163661435Y-155256518D01*
X163630895Y-155241343D01*
X163622790Y-155240789D01*
X163590473Y-155252289D01*
X163570317Y-155280773D01*
X163568281Y-155317216D01*
X163434969Y-155317216D01*
X163430310Y-155294351D01*
X163443724Y-155230690D01*
X163483466Y-155168858D01*
X163487711Y-155164125D01*
X163518290Y-155134861D01*
X163548550Y-155119178D01*
X163590414Y-155111603D01*
X163605071Y-155110252D01*
X163649717Y-155108113D01*
X163679646Y-155113344D01*
X163706606Y-155129510D01*
X163728100Y-155147566D01*
X163771240Y-155190134D01*
X163795362Y-155228516D01*
X163804924Y-155271326D01*
X163805634Y-155297367D01*
X163793090Y-155359976D01*
X163760557Y-155414486D01*
X163734148Y-155438731D01*
X163717156Y-155461066D01*
X163710151Y-155500143D01*
X163709685Y-155519181D01*
X163709086Y-155544106D01*
X163705388Y-155564878D01*
X163695739Y-155585616D01*
X163677289Y-155610443D01*
X163647185Y-155643480D01*
X163602575Y-155688848D01*
X163569316Y-155722052D01*
X163428948Y-155861943D01*
X163428948Y-156142823D01*
X163238621Y-156333490D01*
X163048293Y-156524158D01*
X162579681Y-156524158D01*
X162402736Y-156346847D01*
X162225790Y-156169536D01*
X162225790Y-155862003D01*
X162065276Y-155701907D01*
X161904761Y-155541811D01*
X161420491Y-156026082D01*
X160936220Y-156510353D01*
X161009505Y-156585197D01*
X161185453Y-156746744D01*
X161380355Y-156892648D01*
X161590430Y-157020989D01*
X161811900Y-157129848D01*
X162040986Y-157217304D01*
X162273907Y-157281437D01*
X162439685Y-157311782D01*
X162493431Y-157319625D01*
X162540719Y-157326745D01*
X162571910Y-157331690D01*
X162573369Y-157331939D01*
X162596471Y-157333457D01*
X162641756Y-157334384D01*
X162704675Y-157334702D01*
X162780680Y-157334395D01*
X162865222Y-157333446D01*
X162887527Y-157333100D01*
X162989944Y-157330992D01*
X163071533Y-157328081D01*
X163138198Y-157323851D01*
X163195845Y-157317783D01*
X163250381Y-157309359D01*
X163307711Y-157298060D01*
X163322000Y-157294982D01*
X163502498Y-157249895D01*
X163669109Y-157195344D01*
X163834169Y-157127095D01*
X163896842Y-157097753D01*
X164124607Y-156973514D01*
X164338569Y-156827176D01*
X164536335Y-156660537D01*
X164695860Y-156497646D01*
X164861649Y-156293041D01*
X165003374Y-156077988D01*
X165120911Y-155853945D01*
X165214132Y-155622373D01*
X165282912Y-155384730D01*
X165327127Y-155142477D01*
X165346651Y-154897073D01*
X165341357Y-154649978D01*
X165311121Y-154402652D01*
X165255817Y-154156554D01*
X165175320Y-153913144D01*
X165069503Y-153673882D01*
X164956286Y-153469473D01*
X164813345Y-153259987D01*
X164650778Y-153068048D01*
X164469888Y-152894562D01*
X164271973Y-152740432D01*
X164058335Y-152606565D01*
X163830274Y-152493864D01*
X163589090Y-152403234D01*
X163336085Y-152335579D01*
X163322000Y-152332574D01*
X163200904Y-152312215D01*
X163062889Y-152297617D01*
X162916094Y-152289037D01*
X162768654Y-152286734D01*
X162628708Y-152290965D01*
X162504393Y-152301990D01*
X162477092Y-152305779D01*
X162213531Y-152358327D01*
X161962162Y-152434250D01*
X161723875Y-152532931D01*
X161499559Y-152653751D01*
X161290104Y-152796091D01*
X161096400Y-152959332D01*
X160919336Y-153142857D01*
X160759803Y-153346046D01*
X160618688Y-153568282D01*
X160591905Y-153616526D01*
X160481554Y-153847599D01*
X160396351Y-154086441D01*
X160336381Y-154331507D01*
X160301728Y-154581254D01*
X160292479Y-154834136D01*
X160174368Y-154834136D01*
X160174321Y-154819684D01*
X160175089Y-154673791D01*
X160177951Y-154554489D01*
X160182910Y-154461715D01*
X160189968Y-154395405D01*
X160191650Y-154385210D01*
X160250439Y-154120211D01*
X160329484Y-153872018D01*
X160429622Y-153639056D01*
X160551691Y-153419753D01*
X160696527Y-153212534D01*
X160864969Y-153015827D01*
X160984086Y-152896112D01*
X161186311Y-152721983D01*
X161404268Y-152568849D01*
X161636035Y-152437623D01*
X161879691Y-152329221D01*
X162133314Y-152244558D01*
X162394982Y-152184548D01*
X162519895Y-152165160D01*
X162605165Y-152157306D01*
X162708753Y-152153027D01*
X162822498Y-152152221D01*
X162938235Y-152154788D01*
D14*
%TO.C,SW1*%
X169728000Y-99355000D02*
X169848000Y-99355000D01*
X167578000Y-99355000D02*
X168718000Y-99355000D01*
X166448000Y-99355000D02*
X166568000Y-99355000D01*
X166448000Y-94955000D02*
X166448000Y-99355000D01*
X166568000Y-94955000D02*
X166448000Y-94955000D01*
X168718000Y-94955000D02*
X167578000Y-94955000D01*
X169848000Y-94955000D02*
X169728000Y-94955000D01*
X169848000Y-99355000D02*
X169848000Y-94955000D01*
D15*
%TO.C,IC2*%
X158162000Y-94737000D02*
X160862000Y-94737000D01*
X160862000Y-94737000D02*
X160862000Y-99637000D01*
X160862000Y-99637000D02*
X158162000Y-99637000D01*
X158162000Y-99637000D02*
X158162000Y-94737000D01*
X156062000Y-94487000D02*
X157812000Y-94487000D01*
%TO.C,IC1*%
X155084000Y-92540000D02*
X173084000Y-92540000D01*
X155084000Y-67340000D02*
X155084000Y-61140000D01*
X155084000Y-61140000D02*
X173084000Y-61140000D01*
X173084000Y-61140000D02*
X173084000Y-67340000D01*
D12*
X154084000Y-68580000D02*
X154084000Y-68580000D01*
X154084000Y-68480000D02*
X154084000Y-68480000D01*
X154084000Y-68580000D02*
G75*
G02*
X154084000Y-68480000I0J50000D01*
G01*
X154084000Y-68480000D02*
G75*
G02*
X154084000Y-68580000I0J-50000D01*
G01*
D14*
%TO.C,R1*%
X153430500Y-76470742D02*
X153430500Y-76945258D01*
X152385500Y-76470742D02*
X152385500Y-76945258D01*
%TO.C,C3*%
X152398000Y-73546580D02*
X152398000Y-73265420D01*
X153418000Y-73546580D02*
X153418000Y-73265420D01*
%TO.C,C2*%
X153418000Y-69963420D02*
X153418000Y-70244580D01*
X152398000Y-69963420D02*
X152398000Y-70244580D01*
%TO.C,C1*%
X152398000Y-80150580D02*
X152398000Y-79869420D01*
X153418000Y-80150580D02*
X153418000Y-79869420D01*
%TD*%
M02*
