%TF.GenerationSoftware,KiCad,Pcbnew,(5.1.9)-1*%
%TF.CreationDate,2021-03-30T21:26:33+02:00*%
%TF.ProjectId,plant,706c616e-742e-46b6-9963-61645f706362,rev?*%
%TF.SameCoordinates,Original*%
%TF.FileFunction,Copper,L2,Bot*%
%TF.FilePolarity,Positive*%
%FSLAX46Y46*%
G04 Gerber Fmt 4.6, Leading zero omitted, Abs format (unit mm)*
G04 Created by KiCad (PCBNEW (5.1.9)-1) date 2021-03-30 21:26:33*
%MOMM*%
%LPD*%
G01*
G04 APERTURE LIST*
%TA.AperFunction,SMDPad,CuDef*%
%ADD10R,5.080000X3.960000*%
%TD*%
%TA.AperFunction,SMDPad,CuDef*%
%ADD11R,2.340000X3.960000*%
%TD*%
%TA.AperFunction,ComponentPad*%
%ADD12C,1.700000*%
%TD*%
%TA.AperFunction,ComponentPad*%
%ADD13O,1.700000X1.700000*%
%TD*%
%TA.AperFunction,ViaPad*%
%ADD14C,0.600000*%
%TD*%
%TA.AperFunction,ViaPad*%
%ADD15C,0.800000*%
%TD*%
%TA.AperFunction,Conductor*%
%ADD16C,0.250000*%
%TD*%
%TA.AperFunction,Conductor*%
%ADD17C,0.254000*%
%TD*%
%TA.AperFunction,Conductor*%
%ADD18C,0.100000*%
%TD*%
G04 APERTURE END LIST*
D10*
%TO.P,U2,2*%
%TO.N,+3V3*%
X162814000Y-83387000D03*
D11*
%TO.P,U2,1*%
X162814000Y-70537000D03*
%TD*%
D10*
%TO.P,U1,2*%
%TO.N,GND*%
X162814000Y-90274000D03*
D11*
%TO.P,U1,1*%
X162814000Y-103124000D03*
%TD*%
D12*
%TO.P,J1,1*%
%TO.N,GND*%
X152908000Y-91186000D03*
D13*
%TO.P,J1,2*%
%TO.N,Net-(IC1-Pad25)*%
X152908000Y-88646000D03*
%TO.P,J1,3*%
%TO.N,Net-(IC1-Pad34)*%
X152908000Y-86106000D03*
%TO.P,J1,4*%
%TO.N,Net-(IC1-Pad35)*%
X152908000Y-83566000D03*
%TD*%
%TO.P,J2,2*%
%TO.N,Net-(IC2-Pad9)*%
X152908000Y-64008000D03*
D12*
%TO.P,J2,1*%
%TO.N,Net-(IC2-Pad7)*%
X152908000Y-66548000D03*
%TD*%
D14*
%TO.N,Net-(IC1-Pad35)*%
X159640235Y-82583719D03*
%TO.N,Net-(IC1-Pad34)*%
X159622540Y-83383535D03*
%TO.N,Net-(IC1-Pad25)*%
X159639000Y-84200994D03*
D15*
%TO.N,Net-(IC1-Pad11)*%
X160528000Y-102235000D03*
X166116000Y-102235006D03*
D14*
%TO.N,GND*%
X170942000Y-68580000D03*
X153797000Y-80264000D03*
X153924000Y-68326000D03*
X157353000Y-69342000D03*
%TO.N,+3V3*%
X154051000Y-70993000D03*
X159512000Y-91313000D03*
X159639000Y-85090000D03*
X155321000Y-93091000D03*
%TD*%
D16*
%TO.N,Net-(IC1-Pad35)*%
X152908000Y-83566000D02*
X153890281Y-82583719D01*
X153890281Y-82583719D02*
X159640235Y-82583719D01*
%TO.N,Net-(IC1-Pad34)*%
X155630465Y-83383535D02*
X159622540Y-83383535D01*
X152908000Y-86106000D02*
X155630465Y-83383535D01*
%TO.N,Net-(IC1-Pad25)*%
X152908000Y-88646000D02*
X157353006Y-84200994D01*
X157353006Y-84200994D02*
X159639000Y-84200994D01*
%TO.N,Net-(IC1-Pad11)*%
X165227000Y-100584000D02*
X166116000Y-101473000D01*
X160528000Y-101219000D02*
X161163000Y-100584000D01*
X166116000Y-101473000D02*
X166116000Y-102235006D01*
X161163000Y-100584000D02*
X165227000Y-100584000D01*
X160528000Y-102235000D02*
X160528000Y-101219000D01*
%TO.N,+3V3*%
X154507000Y-70537000D02*
X162814000Y-70537000D01*
X154051000Y-70993000D02*
X154507000Y-70537000D01*
X161111000Y-85090000D02*
X162814000Y-83387000D01*
X159639000Y-85090000D02*
X161111000Y-85090000D01*
X159512000Y-91313000D02*
X157734000Y-93091000D01*
X157734000Y-93091000D02*
X155321000Y-93091000D01*
%TD*%
D17*
%TO.N,GND*%
X173296533Y-60867885D02*
X173362457Y-60887789D01*
X173423255Y-60920115D01*
X173476619Y-60963639D01*
X173520512Y-61016696D01*
X173553266Y-61077271D01*
X173573628Y-61143053D01*
X173584001Y-61241740D01*
X173584000Y-93439721D01*
X173569278Y-93589869D01*
X173527215Y-93729187D01*
X169178428Y-103482963D01*
X169178424Y-103482971D01*
X169178380Y-103483073D01*
X169165459Y-103512052D01*
X169163913Y-103516699D01*
X169161106Y-103523254D01*
X169151394Y-103553907D01*
X169138721Y-103583475D01*
X169135997Y-103592278D01*
X169064357Y-103829559D01*
X169052736Y-103888246D01*
X169040300Y-103946752D01*
X169039337Y-103955917D01*
X169015150Y-104202595D01*
X169012000Y-104234582D01*
X169012000Y-107315000D01*
X156616000Y-107315000D01*
X156616000Y-104234581D01*
X156615559Y-104230100D01*
X156615467Y-104223376D01*
X156611891Y-104191401D01*
X156611463Y-104159231D01*
X156610378Y-104150080D01*
X156579474Y-103904153D01*
X156566253Y-103845784D01*
X156553860Y-103787291D01*
X156551018Y-103778525D01*
X156493334Y-103604742D01*
X156493304Y-103604500D01*
X156462541Y-103512050D01*
X155847710Y-102133061D01*
X159493000Y-102133061D01*
X159493000Y-102336939D01*
X159532774Y-102536898D01*
X159610795Y-102725256D01*
X159724063Y-102894774D01*
X159868226Y-103038937D01*
X160037744Y-103152205D01*
X160226102Y-103230226D01*
X160426061Y-103270000D01*
X160629939Y-103270000D01*
X160829898Y-103230226D01*
X161009000Y-103156039D01*
X161009000Y-103251002D01*
X161167748Y-103251002D01*
X161009000Y-103409750D01*
X161005928Y-105104000D01*
X161018188Y-105228482D01*
X161054498Y-105348180D01*
X161113463Y-105458494D01*
X161192815Y-105555185D01*
X161289506Y-105634537D01*
X161399820Y-105693502D01*
X161519518Y-105729812D01*
X161644000Y-105742072D01*
X162528250Y-105739000D01*
X162687000Y-105580250D01*
X162687000Y-103251000D01*
X162941000Y-103251000D01*
X162941000Y-105580250D01*
X163099750Y-105739000D01*
X163984000Y-105742072D01*
X164108482Y-105729812D01*
X164228180Y-105693502D01*
X164338494Y-105634537D01*
X164435185Y-105555185D01*
X164514537Y-105458494D01*
X164573502Y-105348180D01*
X164609812Y-105228482D01*
X164622072Y-105104000D01*
X164619000Y-103409750D01*
X164460250Y-103251000D01*
X162941000Y-103251000D01*
X162687000Y-103251000D01*
X162667000Y-103251000D01*
X162667000Y-102997000D01*
X162687000Y-102997000D01*
X162687000Y-102977000D01*
X162941000Y-102977000D01*
X162941000Y-102997000D01*
X164460250Y-102997000D01*
X164619000Y-102838250D01*
X164621709Y-101344000D01*
X164912199Y-101344000D01*
X165244518Y-101676320D01*
X165198795Y-101744750D01*
X165120774Y-101933108D01*
X165081000Y-102133067D01*
X165081000Y-102336945D01*
X165120774Y-102536904D01*
X165198795Y-102725262D01*
X165312063Y-102894780D01*
X165456226Y-103038943D01*
X165625744Y-103152211D01*
X165814102Y-103230232D01*
X166014061Y-103270006D01*
X166217939Y-103270006D01*
X166417898Y-103230232D01*
X166606256Y-103152211D01*
X166775774Y-103038943D01*
X166919937Y-102894780D01*
X167033205Y-102725262D01*
X167111226Y-102536904D01*
X167151000Y-102336945D01*
X167151000Y-102133067D01*
X167111226Y-101933108D01*
X167033205Y-101744750D01*
X166919937Y-101575232D01*
X166876000Y-101531295D01*
X166876000Y-101510323D01*
X166879676Y-101473000D01*
X166876000Y-101435677D01*
X166876000Y-101435667D01*
X166865003Y-101324014D01*
X166821546Y-101180753D01*
X166750974Y-101048724D01*
X166656001Y-100932999D01*
X166627004Y-100909202D01*
X165790803Y-100073002D01*
X165767001Y-100043999D01*
X165651276Y-99949026D01*
X165519247Y-99878454D01*
X165375986Y-99834997D01*
X165264333Y-99824000D01*
X165264322Y-99824000D01*
X165227000Y-99820324D01*
X165189678Y-99824000D01*
X161200333Y-99824000D01*
X161163000Y-99820323D01*
X161125667Y-99824000D01*
X161014014Y-99834997D01*
X160870753Y-99878454D01*
X160738724Y-99949026D01*
X160622999Y-100043999D01*
X160599200Y-100072998D01*
X160016998Y-100655201D01*
X159988000Y-100678999D01*
X159964202Y-100707997D01*
X159964201Y-100707998D01*
X159893026Y-100794724D01*
X159822454Y-100926754D01*
X159778998Y-101070015D01*
X159764324Y-101219000D01*
X159768001Y-101256332D01*
X159768001Y-101531288D01*
X159724063Y-101575226D01*
X159610795Y-101744744D01*
X159532774Y-101933102D01*
X159493000Y-102133061D01*
X155847710Y-102133061D01*
X152109564Y-93748878D01*
X152062158Y-93606059D01*
X152044000Y-93461564D01*
X152044000Y-92998911D01*
X154386000Y-92998911D01*
X154386000Y-93183089D01*
X154421932Y-93363729D01*
X154492414Y-93533889D01*
X154594738Y-93687028D01*
X154724972Y-93817262D01*
X154878111Y-93919586D01*
X155048271Y-93990068D01*
X155228911Y-94026000D01*
X155413089Y-94026000D01*
X155593729Y-93990068D01*
X155763889Y-93919586D01*
X155866535Y-93851000D01*
X157696678Y-93851000D01*
X157734000Y-93854676D01*
X157771322Y-93851000D01*
X157771333Y-93851000D01*
X157882986Y-93840003D01*
X158026247Y-93796546D01*
X158158276Y-93725974D01*
X158274001Y-93631001D01*
X158297804Y-93601997D01*
X159636813Y-92262988D01*
X159648188Y-92378482D01*
X159684498Y-92498180D01*
X159743463Y-92608494D01*
X159822815Y-92705185D01*
X159919506Y-92784537D01*
X160029820Y-92843502D01*
X160149518Y-92879812D01*
X160274000Y-92892072D01*
X162528250Y-92889000D01*
X162687000Y-92730250D01*
X162687000Y-90401000D01*
X162941000Y-90401000D01*
X162941000Y-92730250D01*
X163099750Y-92889000D01*
X165354000Y-92892072D01*
X165478482Y-92879812D01*
X165598180Y-92843502D01*
X165708494Y-92784537D01*
X165805185Y-92705185D01*
X165884537Y-92608494D01*
X165943502Y-92498180D01*
X165979812Y-92378482D01*
X165992072Y-92254000D01*
X165989000Y-90559750D01*
X165830250Y-90401000D01*
X162941000Y-90401000D01*
X162687000Y-90401000D01*
X159797750Y-90401000D01*
X159784792Y-90413958D01*
X159784729Y-90413932D01*
X159604089Y-90378000D01*
X159419911Y-90378000D01*
X159239271Y-90413932D01*
X159069111Y-90484414D01*
X158915972Y-90586738D01*
X158785738Y-90716972D01*
X158683414Y-90870111D01*
X158612932Y-91040271D01*
X158588847Y-91161351D01*
X157419199Y-92331000D01*
X155866535Y-92331000D01*
X155763889Y-92262414D01*
X155593729Y-92191932D01*
X155413089Y-92156000D01*
X155228911Y-92156000D01*
X155048271Y-92191932D01*
X154878111Y-92262414D01*
X154724972Y-92364738D01*
X154594738Y-92494972D01*
X154492414Y-92648111D01*
X154421932Y-92818271D01*
X154386000Y-92998911D01*
X152044000Y-92998911D01*
X152044000Y-92229608D01*
X152059209Y-92214399D01*
X152136843Y-92463472D01*
X152400883Y-92589371D01*
X152684411Y-92661339D01*
X152976531Y-92676611D01*
X153266019Y-92634599D01*
X153541747Y-92536919D01*
X153679157Y-92463472D01*
X153756792Y-92214397D01*
X152908000Y-91365605D01*
X152893858Y-91379748D01*
X152714253Y-91200143D01*
X152728395Y-91186000D01*
X153087605Y-91186000D01*
X153936397Y-92034792D01*
X154185472Y-91957157D01*
X154311371Y-91693117D01*
X154383339Y-91409589D01*
X154398611Y-91117469D01*
X154356599Y-90827981D01*
X154258919Y-90552253D01*
X154185472Y-90414843D01*
X153936397Y-90337208D01*
X153087605Y-91186000D01*
X152728395Y-91186000D01*
X152714253Y-91171858D01*
X152893858Y-90992253D01*
X152908000Y-91006395D01*
X153756792Y-90157603D01*
X153681271Y-89915311D01*
X153854632Y-89799475D01*
X154061475Y-89592632D01*
X154223990Y-89349411D01*
X154335932Y-89079158D01*
X154393000Y-88792260D01*
X154393000Y-88499740D01*
X154352075Y-88294000D01*
X159635928Y-88294000D01*
X159639000Y-89988250D01*
X159797750Y-90147000D01*
X162687000Y-90147000D01*
X162687000Y-87817750D01*
X162941000Y-87817750D01*
X162941000Y-90147000D01*
X165830250Y-90147000D01*
X165989000Y-89988250D01*
X165992072Y-88294000D01*
X165979812Y-88169518D01*
X165943502Y-88049820D01*
X165884537Y-87939506D01*
X165805185Y-87842815D01*
X165708494Y-87763463D01*
X165598180Y-87704498D01*
X165478482Y-87668188D01*
X165354000Y-87655928D01*
X163099750Y-87659000D01*
X162941000Y-87817750D01*
X162687000Y-87817750D01*
X162528250Y-87659000D01*
X160274000Y-87655928D01*
X160149518Y-87668188D01*
X160029820Y-87704498D01*
X159919506Y-87763463D01*
X159822815Y-87842815D01*
X159743463Y-87939506D01*
X159684498Y-88049820D01*
X159648188Y-88169518D01*
X159635928Y-88294000D01*
X154352075Y-88294000D01*
X154349209Y-88279592D01*
X157667808Y-84960994D01*
X158711343Y-84960994D01*
X158704000Y-84997911D01*
X158704000Y-85182089D01*
X158739932Y-85362729D01*
X158810414Y-85532889D01*
X158912738Y-85686028D01*
X159042972Y-85816262D01*
X159196111Y-85918586D01*
X159366271Y-85989068D01*
X159546911Y-86025000D01*
X159731089Y-86025000D01*
X159911729Y-85989068D01*
X160012588Y-85947291D01*
X160029820Y-85956502D01*
X160149518Y-85992812D01*
X160274000Y-86005072D01*
X165354000Y-86005072D01*
X165478482Y-85992812D01*
X165598180Y-85956502D01*
X165708494Y-85897537D01*
X165805185Y-85818185D01*
X165884537Y-85721494D01*
X165943502Y-85611180D01*
X165979812Y-85491482D01*
X165992072Y-85367000D01*
X165992072Y-81407000D01*
X165979812Y-81282518D01*
X165943502Y-81162820D01*
X165884537Y-81052506D01*
X165805185Y-80955815D01*
X165708494Y-80876463D01*
X165598180Y-80817498D01*
X165478482Y-80781188D01*
X165354000Y-80768928D01*
X160274000Y-80768928D01*
X160149518Y-80781188D01*
X160029820Y-80817498D01*
X159919506Y-80876463D01*
X159822815Y-80955815D01*
X159743463Y-81052506D01*
X159684498Y-81162820D01*
X159648188Y-81282518D01*
X159635928Y-81407000D01*
X159635928Y-81648719D01*
X159548146Y-81648719D01*
X159367506Y-81684651D01*
X159197346Y-81755133D01*
X159094700Y-81823719D01*
X153927603Y-81823719D01*
X153890280Y-81820043D01*
X153852957Y-81823719D01*
X153852948Y-81823719D01*
X153741295Y-81834716D01*
X153598034Y-81878173D01*
X153466004Y-81948745D01*
X153418549Y-81987691D01*
X153350280Y-82043718D01*
X153326482Y-82072716D01*
X153274408Y-82124790D01*
X153054260Y-82081000D01*
X152761740Y-82081000D01*
X152474842Y-82138068D01*
X152204589Y-82250010D01*
X152044000Y-82357312D01*
X152044000Y-70900911D01*
X153116000Y-70900911D01*
X153116000Y-71085089D01*
X153151932Y-71265729D01*
X153222414Y-71435889D01*
X153324738Y-71589028D01*
X153454972Y-71719262D01*
X153608111Y-71821586D01*
X153778271Y-71892068D01*
X153958911Y-71928000D01*
X154143089Y-71928000D01*
X154323729Y-71892068D01*
X154493889Y-71821586D01*
X154647028Y-71719262D01*
X154777262Y-71589028D01*
X154879586Y-71435889D01*
X154937115Y-71297000D01*
X161005928Y-71297000D01*
X161005928Y-72517000D01*
X161018188Y-72641482D01*
X161054498Y-72761180D01*
X161113463Y-72871494D01*
X161192815Y-72968185D01*
X161289506Y-73047537D01*
X161399820Y-73106502D01*
X161519518Y-73142812D01*
X161644000Y-73155072D01*
X163984000Y-73155072D01*
X164108482Y-73142812D01*
X164228180Y-73106502D01*
X164338494Y-73047537D01*
X164435185Y-72968185D01*
X164514537Y-72871494D01*
X164573502Y-72761180D01*
X164609812Y-72641482D01*
X164622072Y-72517000D01*
X164622072Y-68557000D01*
X164609812Y-68432518D01*
X164573502Y-68312820D01*
X164514537Y-68202506D01*
X164435185Y-68105815D01*
X164338494Y-68026463D01*
X164228180Y-67967498D01*
X164108482Y-67931188D01*
X163984000Y-67918928D01*
X161644000Y-67918928D01*
X161519518Y-67931188D01*
X161399820Y-67967498D01*
X161289506Y-68026463D01*
X161192815Y-68105815D01*
X161113463Y-68202506D01*
X161054498Y-68312820D01*
X161018188Y-68432518D01*
X161005928Y-68557000D01*
X161005928Y-69777000D01*
X154544322Y-69777000D01*
X154506999Y-69773324D01*
X154469676Y-69777000D01*
X154469667Y-69777000D01*
X154358014Y-69787997D01*
X154214753Y-69831454D01*
X154082724Y-69902026D01*
X153966999Y-69996999D01*
X153943200Y-70025998D01*
X153899351Y-70069847D01*
X153778271Y-70093932D01*
X153608111Y-70164414D01*
X153454972Y-70266738D01*
X153324738Y-70396972D01*
X153222414Y-70550111D01*
X153151932Y-70720271D01*
X153116000Y-70900911D01*
X152044000Y-70900911D01*
X152044000Y-67756688D01*
X152204589Y-67863990D01*
X152474842Y-67975932D01*
X152761740Y-68033000D01*
X153054260Y-68033000D01*
X153341158Y-67975932D01*
X153611411Y-67863990D01*
X153854632Y-67701475D01*
X154061475Y-67494632D01*
X154223990Y-67251411D01*
X154335932Y-66981158D01*
X154393000Y-66694260D01*
X154393000Y-66401740D01*
X154335932Y-66114842D01*
X154223990Y-65844589D01*
X154061475Y-65601368D01*
X153854632Y-65394525D01*
X153680240Y-65278000D01*
X153854632Y-65161475D01*
X154061475Y-64954632D01*
X154223990Y-64711411D01*
X154335932Y-64441158D01*
X154393000Y-64154260D01*
X154393000Y-63861740D01*
X154335932Y-63574842D01*
X154223990Y-63304589D01*
X154061475Y-63061368D01*
X153854632Y-62854525D01*
X153611411Y-62692010D01*
X153341158Y-62580068D01*
X153054260Y-62523000D01*
X152761740Y-62523000D01*
X152474842Y-62580068D01*
X152204589Y-62692010D01*
X152044000Y-62799312D01*
X152044000Y-61246281D01*
X152053885Y-61145467D01*
X152073789Y-61079543D01*
X152106115Y-61018745D01*
X152149639Y-60965381D01*
X152202696Y-60921488D01*
X152263271Y-60888734D01*
X152329053Y-60868372D01*
X152427730Y-60858000D01*
X173195719Y-60858000D01*
X173296533Y-60867885D01*
%TA.AperFunction,Conductor*%
D18*
G36*
X173296533Y-60867885D02*
G01*
X173362457Y-60887789D01*
X173423255Y-60920115D01*
X173476619Y-60963639D01*
X173520512Y-61016696D01*
X173553266Y-61077271D01*
X173573628Y-61143053D01*
X173584001Y-61241740D01*
X173584000Y-93439721D01*
X173569278Y-93589869D01*
X173527215Y-93729187D01*
X169178428Y-103482963D01*
X169178424Y-103482971D01*
X169178380Y-103483073D01*
X169165459Y-103512052D01*
X169163913Y-103516699D01*
X169161106Y-103523254D01*
X169151394Y-103553907D01*
X169138721Y-103583475D01*
X169135997Y-103592278D01*
X169064357Y-103829559D01*
X169052736Y-103888246D01*
X169040300Y-103946752D01*
X169039337Y-103955917D01*
X169015150Y-104202595D01*
X169012000Y-104234582D01*
X169012000Y-107315000D01*
X156616000Y-107315000D01*
X156616000Y-104234581D01*
X156615559Y-104230100D01*
X156615467Y-104223376D01*
X156611891Y-104191401D01*
X156611463Y-104159231D01*
X156610378Y-104150080D01*
X156579474Y-103904153D01*
X156566253Y-103845784D01*
X156553860Y-103787291D01*
X156551018Y-103778525D01*
X156493334Y-103604742D01*
X156493304Y-103604500D01*
X156462541Y-103512050D01*
X155847710Y-102133061D01*
X159493000Y-102133061D01*
X159493000Y-102336939D01*
X159532774Y-102536898D01*
X159610795Y-102725256D01*
X159724063Y-102894774D01*
X159868226Y-103038937D01*
X160037744Y-103152205D01*
X160226102Y-103230226D01*
X160426061Y-103270000D01*
X160629939Y-103270000D01*
X160829898Y-103230226D01*
X161009000Y-103156039D01*
X161009000Y-103251002D01*
X161167748Y-103251002D01*
X161009000Y-103409750D01*
X161005928Y-105104000D01*
X161018188Y-105228482D01*
X161054498Y-105348180D01*
X161113463Y-105458494D01*
X161192815Y-105555185D01*
X161289506Y-105634537D01*
X161399820Y-105693502D01*
X161519518Y-105729812D01*
X161644000Y-105742072D01*
X162528250Y-105739000D01*
X162687000Y-105580250D01*
X162687000Y-103251000D01*
X162941000Y-103251000D01*
X162941000Y-105580250D01*
X163099750Y-105739000D01*
X163984000Y-105742072D01*
X164108482Y-105729812D01*
X164228180Y-105693502D01*
X164338494Y-105634537D01*
X164435185Y-105555185D01*
X164514537Y-105458494D01*
X164573502Y-105348180D01*
X164609812Y-105228482D01*
X164622072Y-105104000D01*
X164619000Y-103409750D01*
X164460250Y-103251000D01*
X162941000Y-103251000D01*
X162687000Y-103251000D01*
X162667000Y-103251000D01*
X162667000Y-102997000D01*
X162687000Y-102997000D01*
X162687000Y-102977000D01*
X162941000Y-102977000D01*
X162941000Y-102997000D01*
X164460250Y-102997000D01*
X164619000Y-102838250D01*
X164621709Y-101344000D01*
X164912199Y-101344000D01*
X165244518Y-101676320D01*
X165198795Y-101744750D01*
X165120774Y-101933108D01*
X165081000Y-102133067D01*
X165081000Y-102336945D01*
X165120774Y-102536904D01*
X165198795Y-102725262D01*
X165312063Y-102894780D01*
X165456226Y-103038943D01*
X165625744Y-103152211D01*
X165814102Y-103230232D01*
X166014061Y-103270006D01*
X166217939Y-103270006D01*
X166417898Y-103230232D01*
X166606256Y-103152211D01*
X166775774Y-103038943D01*
X166919937Y-102894780D01*
X167033205Y-102725262D01*
X167111226Y-102536904D01*
X167151000Y-102336945D01*
X167151000Y-102133067D01*
X167111226Y-101933108D01*
X167033205Y-101744750D01*
X166919937Y-101575232D01*
X166876000Y-101531295D01*
X166876000Y-101510323D01*
X166879676Y-101473000D01*
X166876000Y-101435677D01*
X166876000Y-101435667D01*
X166865003Y-101324014D01*
X166821546Y-101180753D01*
X166750974Y-101048724D01*
X166656001Y-100932999D01*
X166627004Y-100909202D01*
X165790803Y-100073002D01*
X165767001Y-100043999D01*
X165651276Y-99949026D01*
X165519247Y-99878454D01*
X165375986Y-99834997D01*
X165264333Y-99824000D01*
X165264322Y-99824000D01*
X165227000Y-99820324D01*
X165189678Y-99824000D01*
X161200333Y-99824000D01*
X161163000Y-99820323D01*
X161125667Y-99824000D01*
X161014014Y-99834997D01*
X160870753Y-99878454D01*
X160738724Y-99949026D01*
X160622999Y-100043999D01*
X160599200Y-100072998D01*
X160016998Y-100655201D01*
X159988000Y-100678999D01*
X159964202Y-100707997D01*
X159964201Y-100707998D01*
X159893026Y-100794724D01*
X159822454Y-100926754D01*
X159778998Y-101070015D01*
X159764324Y-101219000D01*
X159768001Y-101256332D01*
X159768001Y-101531288D01*
X159724063Y-101575226D01*
X159610795Y-101744744D01*
X159532774Y-101933102D01*
X159493000Y-102133061D01*
X155847710Y-102133061D01*
X152109564Y-93748878D01*
X152062158Y-93606059D01*
X152044000Y-93461564D01*
X152044000Y-92998911D01*
X154386000Y-92998911D01*
X154386000Y-93183089D01*
X154421932Y-93363729D01*
X154492414Y-93533889D01*
X154594738Y-93687028D01*
X154724972Y-93817262D01*
X154878111Y-93919586D01*
X155048271Y-93990068D01*
X155228911Y-94026000D01*
X155413089Y-94026000D01*
X155593729Y-93990068D01*
X155763889Y-93919586D01*
X155866535Y-93851000D01*
X157696678Y-93851000D01*
X157734000Y-93854676D01*
X157771322Y-93851000D01*
X157771333Y-93851000D01*
X157882986Y-93840003D01*
X158026247Y-93796546D01*
X158158276Y-93725974D01*
X158274001Y-93631001D01*
X158297804Y-93601997D01*
X159636813Y-92262988D01*
X159648188Y-92378482D01*
X159684498Y-92498180D01*
X159743463Y-92608494D01*
X159822815Y-92705185D01*
X159919506Y-92784537D01*
X160029820Y-92843502D01*
X160149518Y-92879812D01*
X160274000Y-92892072D01*
X162528250Y-92889000D01*
X162687000Y-92730250D01*
X162687000Y-90401000D01*
X162941000Y-90401000D01*
X162941000Y-92730250D01*
X163099750Y-92889000D01*
X165354000Y-92892072D01*
X165478482Y-92879812D01*
X165598180Y-92843502D01*
X165708494Y-92784537D01*
X165805185Y-92705185D01*
X165884537Y-92608494D01*
X165943502Y-92498180D01*
X165979812Y-92378482D01*
X165992072Y-92254000D01*
X165989000Y-90559750D01*
X165830250Y-90401000D01*
X162941000Y-90401000D01*
X162687000Y-90401000D01*
X159797750Y-90401000D01*
X159784792Y-90413958D01*
X159784729Y-90413932D01*
X159604089Y-90378000D01*
X159419911Y-90378000D01*
X159239271Y-90413932D01*
X159069111Y-90484414D01*
X158915972Y-90586738D01*
X158785738Y-90716972D01*
X158683414Y-90870111D01*
X158612932Y-91040271D01*
X158588847Y-91161351D01*
X157419199Y-92331000D01*
X155866535Y-92331000D01*
X155763889Y-92262414D01*
X155593729Y-92191932D01*
X155413089Y-92156000D01*
X155228911Y-92156000D01*
X155048271Y-92191932D01*
X154878111Y-92262414D01*
X154724972Y-92364738D01*
X154594738Y-92494972D01*
X154492414Y-92648111D01*
X154421932Y-92818271D01*
X154386000Y-92998911D01*
X152044000Y-92998911D01*
X152044000Y-92229608D01*
X152059209Y-92214399D01*
X152136843Y-92463472D01*
X152400883Y-92589371D01*
X152684411Y-92661339D01*
X152976531Y-92676611D01*
X153266019Y-92634599D01*
X153541747Y-92536919D01*
X153679157Y-92463472D01*
X153756792Y-92214397D01*
X152908000Y-91365605D01*
X152893858Y-91379748D01*
X152714253Y-91200143D01*
X152728395Y-91186000D01*
X153087605Y-91186000D01*
X153936397Y-92034792D01*
X154185472Y-91957157D01*
X154311371Y-91693117D01*
X154383339Y-91409589D01*
X154398611Y-91117469D01*
X154356599Y-90827981D01*
X154258919Y-90552253D01*
X154185472Y-90414843D01*
X153936397Y-90337208D01*
X153087605Y-91186000D01*
X152728395Y-91186000D01*
X152714253Y-91171858D01*
X152893858Y-90992253D01*
X152908000Y-91006395D01*
X153756792Y-90157603D01*
X153681271Y-89915311D01*
X153854632Y-89799475D01*
X154061475Y-89592632D01*
X154223990Y-89349411D01*
X154335932Y-89079158D01*
X154393000Y-88792260D01*
X154393000Y-88499740D01*
X154352075Y-88294000D01*
X159635928Y-88294000D01*
X159639000Y-89988250D01*
X159797750Y-90147000D01*
X162687000Y-90147000D01*
X162687000Y-87817750D01*
X162941000Y-87817750D01*
X162941000Y-90147000D01*
X165830250Y-90147000D01*
X165989000Y-89988250D01*
X165992072Y-88294000D01*
X165979812Y-88169518D01*
X165943502Y-88049820D01*
X165884537Y-87939506D01*
X165805185Y-87842815D01*
X165708494Y-87763463D01*
X165598180Y-87704498D01*
X165478482Y-87668188D01*
X165354000Y-87655928D01*
X163099750Y-87659000D01*
X162941000Y-87817750D01*
X162687000Y-87817750D01*
X162528250Y-87659000D01*
X160274000Y-87655928D01*
X160149518Y-87668188D01*
X160029820Y-87704498D01*
X159919506Y-87763463D01*
X159822815Y-87842815D01*
X159743463Y-87939506D01*
X159684498Y-88049820D01*
X159648188Y-88169518D01*
X159635928Y-88294000D01*
X154352075Y-88294000D01*
X154349209Y-88279592D01*
X157667808Y-84960994D01*
X158711343Y-84960994D01*
X158704000Y-84997911D01*
X158704000Y-85182089D01*
X158739932Y-85362729D01*
X158810414Y-85532889D01*
X158912738Y-85686028D01*
X159042972Y-85816262D01*
X159196111Y-85918586D01*
X159366271Y-85989068D01*
X159546911Y-86025000D01*
X159731089Y-86025000D01*
X159911729Y-85989068D01*
X160012588Y-85947291D01*
X160029820Y-85956502D01*
X160149518Y-85992812D01*
X160274000Y-86005072D01*
X165354000Y-86005072D01*
X165478482Y-85992812D01*
X165598180Y-85956502D01*
X165708494Y-85897537D01*
X165805185Y-85818185D01*
X165884537Y-85721494D01*
X165943502Y-85611180D01*
X165979812Y-85491482D01*
X165992072Y-85367000D01*
X165992072Y-81407000D01*
X165979812Y-81282518D01*
X165943502Y-81162820D01*
X165884537Y-81052506D01*
X165805185Y-80955815D01*
X165708494Y-80876463D01*
X165598180Y-80817498D01*
X165478482Y-80781188D01*
X165354000Y-80768928D01*
X160274000Y-80768928D01*
X160149518Y-80781188D01*
X160029820Y-80817498D01*
X159919506Y-80876463D01*
X159822815Y-80955815D01*
X159743463Y-81052506D01*
X159684498Y-81162820D01*
X159648188Y-81282518D01*
X159635928Y-81407000D01*
X159635928Y-81648719D01*
X159548146Y-81648719D01*
X159367506Y-81684651D01*
X159197346Y-81755133D01*
X159094700Y-81823719D01*
X153927603Y-81823719D01*
X153890280Y-81820043D01*
X153852957Y-81823719D01*
X153852948Y-81823719D01*
X153741295Y-81834716D01*
X153598034Y-81878173D01*
X153466004Y-81948745D01*
X153418549Y-81987691D01*
X153350280Y-82043718D01*
X153326482Y-82072716D01*
X153274408Y-82124790D01*
X153054260Y-82081000D01*
X152761740Y-82081000D01*
X152474842Y-82138068D01*
X152204589Y-82250010D01*
X152044000Y-82357312D01*
X152044000Y-70900911D01*
X153116000Y-70900911D01*
X153116000Y-71085089D01*
X153151932Y-71265729D01*
X153222414Y-71435889D01*
X153324738Y-71589028D01*
X153454972Y-71719262D01*
X153608111Y-71821586D01*
X153778271Y-71892068D01*
X153958911Y-71928000D01*
X154143089Y-71928000D01*
X154323729Y-71892068D01*
X154493889Y-71821586D01*
X154647028Y-71719262D01*
X154777262Y-71589028D01*
X154879586Y-71435889D01*
X154937115Y-71297000D01*
X161005928Y-71297000D01*
X161005928Y-72517000D01*
X161018188Y-72641482D01*
X161054498Y-72761180D01*
X161113463Y-72871494D01*
X161192815Y-72968185D01*
X161289506Y-73047537D01*
X161399820Y-73106502D01*
X161519518Y-73142812D01*
X161644000Y-73155072D01*
X163984000Y-73155072D01*
X164108482Y-73142812D01*
X164228180Y-73106502D01*
X164338494Y-73047537D01*
X164435185Y-72968185D01*
X164514537Y-72871494D01*
X164573502Y-72761180D01*
X164609812Y-72641482D01*
X164622072Y-72517000D01*
X164622072Y-68557000D01*
X164609812Y-68432518D01*
X164573502Y-68312820D01*
X164514537Y-68202506D01*
X164435185Y-68105815D01*
X164338494Y-68026463D01*
X164228180Y-67967498D01*
X164108482Y-67931188D01*
X163984000Y-67918928D01*
X161644000Y-67918928D01*
X161519518Y-67931188D01*
X161399820Y-67967498D01*
X161289506Y-68026463D01*
X161192815Y-68105815D01*
X161113463Y-68202506D01*
X161054498Y-68312820D01*
X161018188Y-68432518D01*
X161005928Y-68557000D01*
X161005928Y-69777000D01*
X154544322Y-69777000D01*
X154506999Y-69773324D01*
X154469676Y-69777000D01*
X154469667Y-69777000D01*
X154358014Y-69787997D01*
X154214753Y-69831454D01*
X154082724Y-69902026D01*
X153966999Y-69996999D01*
X153943200Y-70025998D01*
X153899351Y-70069847D01*
X153778271Y-70093932D01*
X153608111Y-70164414D01*
X153454972Y-70266738D01*
X153324738Y-70396972D01*
X153222414Y-70550111D01*
X153151932Y-70720271D01*
X153116000Y-70900911D01*
X152044000Y-70900911D01*
X152044000Y-67756688D01*
X152204589Y-67863990D01*
X152474842Y-67975932D01*
X152761740Y-68033000D01*
X153054260Y-68033000D01*
X153341158Y-67975932D01*
X153611411Y-67863990D01*
X153854632Y-67701475D01*
X154061475Y-67494632D01*
X154223990Y-67251411D01*
X154335932Y-66981158D01*
X154393000Y-66694260D01*
X154393000Y-66401740D01*
X154335932Y-66114842D01*
X154223990Y-65844589D01*
X154061475Y-65601368D01*
X153854632Y-65394525D01*
X153680240Y-65278000D01*
X153854632Y-65161475D01*
X154061475Y-64954632D01*
X154223990Y-64711411D01*
X154335932Y-64441158D01*
X154393000Y-64154260D01*
X154393000Y-63861740D01*
X154335932Y-63574842D01*
X154223990Y-63304589D01*
X154061475Y-63061368D01*
X153854632Y-62854525D01*
X153611411Y-62692010D01*
X153341158Y-62580068D01*
X153054260Y-62523000D01*
X152761740Y-62523000D01*
X152474842Y-62580068D01*
X152204589Y-62692010D01*
X152044000Y-62799312D01*
X152044000Y-61246281D01*
X152053885Y-61145467D01*
X152073789Y-61079543D01*
X152106115Y-61018745D01*
X152149639Y-60965381D01*
X152202696Y-60921488D01*
X152263271Y-60888734D01*
X152329053Y-60868372D01*
X152427730Y-60858000D01*
X173195719Y-60858000D01*
X173296533Y-60867885D01*
G37*
%TD.AperFunction*%
%TD*%
M02*
